<?xml version="1.0" encoding="UTF-8"?>
<!DOCTYPE svg PUBLIC "-//W3C//DTD SVG 1.1//EN" "http://www.w3.org/Graphics/SVG/1.1/DTD/svg11.dtd">
<svg xmlns="http://www.w3.org/2000/svg" version="1.1" width="100px" height="50px" style="shape-rendering:geometricPrecision; text-rendering:geometricPrecision; image-rendering:optimizeQuality; fill-rule:evenodd; clip-rule:evenodd" xmlns:xlink="http://www.w3.org/1999/xlink">
<g><path style="opacity:1" fill="#fbfbfb" d="M -0.5,-0.5 C 32.8333,-0.5 66.1667,-0.5 99.5,-0.5C 99.5,16.1667 99.5,32.8333 99.5,49.5C 66.1667,49.5 32.8333,49.5 -0.5,49.5C -0.5,32.8333 -0.5,16.1667 -0.5,-0.5 Z"/></g>
<g><path style="opacity:1" fill="#69747b" d="M 15.5,10.5 C 16.5,10.5 17.5,10.5 18.5,10.5C 18.5,16.8333 18.5,23.1667 18.5,29.5C 17.5,29.5 16.5,29.5 15.5,29.5C 15.5,23.1667 15.5,16.8333 15.5,10.5 Z"/></g>
<g><path style="opacity:1" fill="#2a3b44" d="M 19.5,11.5 C 20.5,11.5 21.5,11.5 22.5,11.5C 23.4901,20.8028 24.4901,20.8028 25.5,11.5C 26.8333,17.5 26.8333,23.5 25.5,29.5C 24.914,29.2907 24.414,28.9574 24,28.5C 22.4027,14.1116 21.236,14.4449 20.5,29.5C 19.5041,23.5368 19.1707,17.5368 19.5,11.5 Z"/></g>
<g><path style="opacity:1" fill="#7d878e" d="M 28.5,11.5 C 28.3339,17.1764 28.5006,22.8431 29,28.5C 29.2784,27.5842 29.7784,26.9175 30.5,26.5C 30.5,27.5 30.5,28.5 30.5,29.5C 29.5,29.5 28.5,29.5 27.5,29.5C 27.1771,23.31 27.5104,17.31 28.5,11.5 Z"/></g>
<g><path style="opacity:1" fill="#21333d" d="M 28.5,11.5 C 28.8333,11.5 29.1667,11.5 29.5,11.5C 29.5,15.5 29.5,19.5 29.5,23.5C 30.8333,23.5 32.1667,23.5 33.5,23.5C 33.5,19.5 33.5,15.5 33.5,11.5C 34.6517,16.9846 34.8184,22.6513 34,28.5C 33.7216,27.5842 33.2216,26.9175 32.5,26.5C 31.8333,25.1667 31.1667,25.1667 30.5,26.5C 29.7784,26.9175 29.2784,27.5842 29,28.5C 28.5006,22.8431 28.3339,17.1764 28.5,11.5 Z"/></g>
<g><path style="opacity:1" fill="#57656c" d="M 29.5,11.5 C 30.1663,15.0208 30.8329,18.6875 31.5,22.5C 32.4892,18.8927 32.8226,15.226 32.5,11.5C 32.8333,11.5 33.1667,11.5 33.5,11.5C 33.5,15.5 33.5,19.5 33.5,23.5C 32.1667,23.5 30.8333,23.5 29.5,23.5C 29.5,19.5 29.5,15.5 29.5,11.5 Z"/></g>
<g><path style="opacity:1" fill="#8d969b" d="M 32.5,11.5 C 33.209,10.596 34.209,10.2627 35.5,10.5C 35.1984,13.0593 35.5318,15.3926 36.5,17.5C 36.5,19.1667 36.5,20.8333 36.5,22.5C 35.5318,24.6074 35.1984,26.9407 35.5,29.5C 34.5,29.5 33.5,29.5 32.5,29.5C 32.5,28.5 32.5,27.5 32.5,26.5C 33.2216,26.9175 33.7216,27.5842 34,28.5C 34.8184,22.6513 34.6517,16.9846 33.5,11.5C 33.1667,11.5 32.8333,11.5 32.5,11.5 Z"/></g>
<g><path style="opacity:1" fill="#2f3f49" d="M 57.5,11.5 C 59.1667,11.5 60.8333,11.5 62.5,11.5C 62.6621,13.5273 62.4955,15.5273 62,17.5C 61.8038,15.7139 60.9705,14.3805 59.5,13.5C 58.1667,17.8333 58.1667,22.1667 59.5,26.5C 60.1667,25.1667 60.8333,23.8333 61.5,22.5C 63.8313,27.9471 62.3313,29.9471 57,28.5C 56.2153,22.7507 56.3819,17.084 57.5,11.5 Z"/></g>
<g><path style="opacity:1" fill="#32424c" d="M 65.5,11.5 C 70.8946,10.5548 72.5613,12.5548 70.5,17.5C 69.8524,15.8508 68.8524,14.5175 67.5,13.5C 66.5078,17.7828 66.1744,22.1161 66.5,26.5C 67.5,26.5 68.5,26.5 69.5,26.5C 69.238,25.0222 69.5713,23.6888 70.5,22.5C 72.3192,26.1085 71.3192,28.4418 67.5,29.5C 66.3527,29.1822 65.5194,28.5156 65,27.5C 64.2185,22.0833 64.3852,16.7499 65.5,11.5 Z"/></g>
<g><path style="opacity:1" fill="#243640" d="M 74.5,11.5 C 74.5,15.5 74.5,19.5 74.5,23.5C 75.5,23.5 76.5,23.5 77.5,23.5C 77.5,19.5 77.5,15.5 77.5,11.5C 78.8164,14.0866 79.483,17.0866 79.5,20.5C 79.1667,23.5 78.8333,26.5 78.5,29.5C 76.8333,24.1667 75.1667,24.1667 73.5,29.5C 73.1667,26.5 72.8333,23.5 72.5,20.5C 72.517,17.0866 73.1836,14.0866 74.5,11.5 Z"/></g>
<g><path style="opacity:1" fill="#c4c8cb" d="M 74.5,11.5 C 75.3227,14.977 75.8227,18.6437 76,22.5C 76.1773,18.6437 76.6773,14.977 77.5,11.5C 77.5,15.5 77.5,19.5 77.5,23.5C 76.5,23.5 75.5,23.5 74.5,23.5C 74.5,19.5 74.5,15.5 74.5,11.5 Z"/></g>
<g><path style="opacity:1" fill="#4e5c64" d="M 81.5,11.5 C 82.8164,14.0866 83.483,17.0866 83.5,20.5C 83.1667,23.5 82.8333,26.5 82.5,29.5C 81.5041,23.5368 81.1707,17.5368 81.5,11.5 Z"/></g>
<g><path style="opacity:1" fill="#a4abaf" d="M 84.5,10.5 C 85.5,10.5 86.5,10.5 87.5,10.5C 87.5,11.5 87.5,12.5 87.5,13.5C 86.5,13.5 85.5,13.5 84.5,13.5C 84.5,12.5 84.5,11.5 84.5,10.5 Z"/></g>
<g><path style="opacity:1" fill="#32434c" d="M 36.5,22.5 C 36.5,20.8333 36.5,19.1667 36.5,17.5C 39.3548,10.4836 44.3548,8.65022 51.5,12C 56.1268,16.3599 56.6268,21.1933 53,26.5C 45.861,31.3993 40.361,30.066 36.5,22.5 Z"/></g>
<g><path style="opacity:1" fill="#f7f7f8" d="M 42.5,12.5 C 50.8848,11.7159 54.0515,15.3826 52,23.5C 47.7963,28.7413 43.4629,28.7413 39,23.5C 37.6624,18.9597 38.8291,15.293 42.5,12.5 Z"/></g>
</svg>
