<?xml version="1.0" encoding="UTF-8"?>
<!DOCTYPE svg PUBLIC "-//W3C//DTD SVG 1.1//EN" "http://www.w3.org/Graphics/SVG/1.1/DTD/svg11.dtd">
<svg xmlns="http://www.w3.org/2000/svg" version="1.1" width="300px" height="131px" style="shape-rendering:geometricPrecision; text-rendering:geometricPrecision; image-rendering:optimizeQuality; fill-rule:evenodd; clip-rule:evenodd" xmlns:xlink="http://www.w3.org/1999/xlink">
<g><path style="opacity:1" fill="#fcfcfc" d="M -0.5,-0.5 C 99.5,-0.5 199.5,-0.5 299.5,-0.5C 299.5,43.1667 299.5,86.8333 299.5,130.5C 199.5,130.5 99.5,130.5 -0.5,130.5C -0.5,86.8333 -0.5,43.1667 -0.5,-0.5 Z"/></g>
<g><path style="opacity:1" fill="#293a44" d="M 128.5,24.5 C 148.187,22.0581 161.353,30.0581 168,48.5C 169.836,67.0127 162.003,79.1794 144.5,85C 125.307,87.8012 112.807,79.9678 107,61.5C 104.734,43.6162 111.901,31.2829 128.5,24.5 Z"/></g>
<g><path style="opacity:1" fill="#6f7a80" d="M 75.5,26.5 C 76.4971,45.9929 76.8304,65.6596 76.5,85.5C 73.6146,85.8064 70.9479,85.4731 68.5,84.5C 70.8333,84.5 73.1667,84.5 75.5,84.5C 75.5,65.1667 75.5,45.8333 75.5,26.5 Z"/></g>
<g><path style="opacity:1" fill="#6c787f" d="M 102.5,26.5 C 103.497,45.9929 103.83,65.6596 103.5,85.5C 100.833,85.5 98.1667,85.5 95.5,85.5C 95.5,82.5 95.5,79.5 95.5,76.5C 96.4731,78.9479 96.8064,81.6146 96.5,84.5C 98.5,84.5 100.5,84.5 102.5,84.5C 102.5,65.1667 102.5,45.8333 102.5,26.5 Z"/></g>
<g><path style="opacity:1" fill="#747f86" d="M 245.5,26.5 C 246.497,45.9929 246.83,65.6596 246.5,85.5C 243.833,85.5 241.167,85.5 238.5,85.5C 238.5,82.5 238.5,79.5 238.5,76.5C 239.473,78.9479 239.806,81.6146 239.5,84.5C 241.5,84.5 243.5,84.5 245.5,84.5C 245.5,65.1667 245.5,45.8333 245.5,26.5 Z"/></g>
<g><path style="opacity:1" fill="#23343e" d="M 41.5,26.5 C 43.8333,26.5 46.1667,26.5 48.5,26.5C 48.5,46.1667 48.5,65.8333 48.5,85.5C 46.1667,85.5 43.8333,85.5 41.5,85.5C 41.5,65.8333 41.5,46.1667 41.5,26.5 Z"/></g>
<g><path style="opacity:1" fill="#243640" d="M 53.5,26.5 C 56.5,26.5 59.5,26.5 62.5,26.5C 64.3818,35.1236 66.0484,43.7903 67.5,52.5C 68.1847,54.4144 68.6847,56.4144 69,58.5C 69.4998,47.8385 69.6665,37.1719 69.5,26.5C 71.5,26.5 73.5,26.5 75.5,26.5C 75.5,45.8333 75.5,65.1667 75.5,84.5C 73.1667,84.5 70.8333,84.5 68.5,84.5C 65.4177,70.9182 62.751,57.2515 60.5,43.5C 60.44,42.9569 60.1067,42.6236 59.5,42.5C 58.5008,56.4841 58.1674,70.4841 58.5,84.5C 56.8333,84.5 55.1667,84.5 53.5,84.5C 53.5,65.1667 53.5,45.8333 53.5,26.5 Z"/></g>
<g><path style="opacity:1" fill="#d9dcdd" d="M 69.5,26.5 C 69.6665,37.1719 69.4998,47.8385 69,58.5C 68.6847,56.4144 68.1847,54.4144 67.5,52.5C 68.1667,43.8333 68.8333,35.1667 69.5,26.5 Z"/></g>
<g><path style="opacity:1" fill="#243640" d="M 102.5,26.5 C 102.5,45.8333 102.5,65.1667 102.5,84.5C 100.5,84.5 98.5,84.5 96.5,84.5C 96.8064,81.6146 96.4731,78.9479 95.5,76.5C 93.1206,73.8598 90.6206,73.8598 88,76.5C 87.502,79.4816 87.3354,82.4816 87.5,85.5C 85.1667,85.5 82.8333,85.5 80.5,85.5C 80.5,65.8333 80.5,46.1667 80.5,26.5C 82.8333,26.5 85.1667,26.5 87.5,26.5C 87.5,39.5 87.5,52.5 87.5,65.5C 90.1667,65.5 92.8333,65.5 95.5,65.5C 95.5,52.5 95.5,39.5 95.5,26.5C 97.8333,26.5 100.167,26.5 102.5,26.5 Z"/></g>
<g><path style="opacity:1" fill="#263842" d="M 177.5,26.5 C 185.834,25.2353 191.001,28.5686 193,36.5C 193.498,39.8168 193.665,43.1501 193.5,46.5C 191.167,46.5 188.833,46.5 186.5,46.5C 186.665,43.1501 186.498,39.8168 186,36.5C 183.667,33.8333 181.333,33.8333 179,36.5C 178.833,42.8333 178.667,49.1667 178.5,55.5C 178.369,62.6012 178.869,69.6012 180,76.5C 181.667,77.8333 183.333,77.8333 185,76.5C 186.367,72.3004 186.867,67.9671 186.5,63.5C 188.833,63.5 191.167,63.5 193.5,63.5C 193.691,68.8993 193.191,74.2326 192,79.5C 188.723,85.1088 183.89,86.9422 177.5,85C 175.448,84.0701 173.948,82.5701 173,80.5C 171.397,64.8876 171.063,49.2209 172,33.5C 173.666,31.0043 175.5,28.671 177.5,26.5 Z"/></g>
<g><path style="opacity:1" fill="#273842" d="M 203.5,26.5 C 211.476,24.968 216.643,27.968 219,35.5C 219.499,39.1516 219.665,42.8183 219.5,46.5C 217.167,46.5 214.833,46.5 212.5,46.5C 212.665,43.1501 212.498,39.8168 212,36.5C 209.667,33.8333 207.333,33.8333 205,36.5C 204.333,49.5 204.333,62.5 205,75.5C 207.84,78.3707 210.174,78.0374 212,74.5C 212.499,70.8484 212.665,67.1817 212.5,63.5C 214.833,63.5 217.167,63.5 219.5,63.5C 219.666,67.8461 219.499,72.1794 219,76.5C 216.71,84.3978 211.543,87.2311 203.5,85C 201.448,84.0701 199.948,82.5701 199,80.5C 197.397,64.8876 197.063,49.2209 198,33.5C 199.666,31.0043 201.5,28.671 203.5,26.5 Z"/></g>
<g><path style="opacity:1" fill="#253740" d="M 245.5,26.5 C 245.5,45.8333 245.5,65.1667 245.5,84.5C 243.5,84.5 241.5,84.5 239.5,84.5C 239.806,81.6146 239.473,78.9479 238.5,76.5C 237.688,75.0069 236.355,74.3402 234.5,74.5C 233.5,74.8333 232.5,75.1667 231.5,75.5C 230.583,78.7577 230.249,82.091 230.5,85.5C 228.167,85.5 225.833,85.5 223.5,85.5C 223.5,65.8333 223.5,46.1667 223.5,26.5C 225.833,26.5 228.167,26.5 230.5,26.5C 230.5,39.5 230.5,52.5 230.5,65.5C 233.167,65.5 235.833,65.5 238.5,65.5C 238.5,52.5 238.5,39.5 238.5,26.5C 240.833,26.5 243.167,26.5 245.5,26.5 Z"/></g>
<g><path style="opacity:1" fill="#23343e" d="M 250.5,26.5 C 252.833,26.5 255.167,26.5 257.5,26.5C 257.5,46.1667 257.5,65.8333 257.5,85.5C 255.167,85.5 252.833,85.5 250.5,85.5C 250.5,65.8333 250.5,46.1667 250.5,26.5 Z"/></g>
<g><path style="opacity:1" fill="#fbfcfc" d="M 130.5,31.5 C 144.44,29.414 154.273,34.7473 160,47.5C 162.982,62.3761 157.482,72.5428 143.5,78C 122.405,79.5722 112.572,69.7389 114,48.5C 117.019,40.3156 122.519,34.649 130.5,31.5 Z"/></g>
<g><path style="opacity:1" fill="#6a757c" d="M 263.5,25.5 C 270.02,25.7174 271.687,28.5508 268.5,34C 261.237,34.8209 259.571,31.9876 263.5,25.5 Z"/></g>
<g><path style="opacity:1" fill="#b9bfc2" d="M 267.5,32.5 C 263.506,34.3488 262.006,33.0155 263,28.5C 265.869,25.9913 268.036,26.658 269.5,30.5C 269.145,31.5223 268.478,32.189 267.5,32.5 Z"/></g>
<g><path style="opacity:1" fill="#546269" d="M 267.5,32.5 C 265.297,31.9484 264.464,30.6151 265,28.5C 265.667,31.1667 266.333,31.1667 267,28.5C 267.49,29.7932 267.657,31.1266 267.5,32.5 Z"/></g>
<g><path style="opacity:1" fill="#56636b" d="M 53.5,26.5 C 53.5,45.8333 53.5,65.1667 53.5,84.5C 55.1667,84.5 56.8333,84.5 58.5,84.5C 58.1674,70.4841 58.5008,56.4841 59.5,42.5C 60.1067,42.6236 60.44,42.9569 60.5,43.5C 59.5042,57.3234 59.1709,71.3234 59.5,85.5C 57.1667,85.5 54.8333,85.5 52.5,85.5C 52.1696,65.6596 52.5029,45.9929 53.5,26.5 Z"/></g>
<g><path style="opacity:1" fill="#f5f5eb" d="M 163.5,91.5 C 165.857,91.3367 168.19,91.5034 170.5,92C 168.189,93.0521 166.856,94.8854 166.5,97.5C 168.909,98.7219 170.742,98.0553 172,95.5C 172.483,96.448 172.649,97.448 172.5,98.5C 173.552,98.3505 174.552,98.5172 175.5,99C 173.899,99.2734 172.399,99.7734 171,100.5C 166.743,112.689 168.243,113.523 175.5,103C 176.448,102.517 177.448,102.351 178.5,102.5C 178.643,104.262 178.309,105.929 177.5,107.5C 178.002,108.521 178.668,108.688 179.5,108C 182.032,104.442 184.199,100.609 186,96.5C 189.049,92.251 190.382,92.5843 190,97.5C 188,100.167 186,102.833 184,105.5C 183.333,107.167 183.333,108.833 184,110.5C 186.374,108.461 188.374,106.128 190,103.5C 189.737,104.951 189.904,106.284 190.5,107.5C 192.043,104.61 194.376,102.943 197.5,102.5C 197.34,104.199 197.506,105.866 198,107.5C 199.763,104.98 201.763,102.647 204,100.5C 204.353,101.672 204.187,102.838 203.5,104C 203.892,105.011 204.559,105.511 205.5,105.5C 204.752,107.332 203.752,108.999 202.5,110.5C 201.719,109.271 201.219,107.938 201,106.5C 198.953,109.626 196.287,110.293 193,108.5C 189.752,108.892 186.752,109.892 184,111.5C 182.347,111.18 181.347,110.18 181,108.5C 178.899,109.615 176.733,109.615 174.5,108.5C 172.041,110.303 169.374,111.637 166.5,112.5C 166.607,108.902 167.274,105.402 168.5,102C 167.991,100.831 167.158,99.9981 166,99.5C 163.803,103.59 162.303,107.924 161.5,112.5C 162.675,112.281 163.675,112.614 164.5,113.5C 161.602,114.848 158.602,115.348 155.5,115C 156.579,114.044 157.745,113.211 159,112.5C 161.167,106.667 163.333,100.833 165.5,95C 164.571,93.9231 163.904,92.7564 163.5,91.5 Z"/></g>
<g><path style="opacity:1" fill="#f4f5eb" d="M 111.5,109.5 C 112.412,107.405 113.579,105.405 115,103.5C 115.684,104.784 115.517,105.951 114.5,107C 115.167,107.667 115.833,107.667 116.5,107C 118.213,105.075 119.547,102.908 120.5,100.5C 120.749,101.582 120.915,102.915 121,104.5C 123.437,101.851 124.77,102.517 125,106.5C 129.618,100.819 131.618,101.485 131,108.5C 133.982,106.804 135.316,104.137 135,100.5C 135.833,99.5 136.667,98.5 137.5,97.5C 138.72,97.8869 139.387,98.7202 139.5,100C 135.847,109.141 137.014,110.641 143,104.5C 143.333,105.5 143.667,106.5 144,107.5C 145.684,105.649 147.517,103.982 149.5,102.5C 150.72,102.887 151.387,103.72 151.5,105C 150.58,109.109 151.58,109.109 154.5,105C 156.547,104.946 156.547,105.946 154.5,108C 153.391,108.638 152.225,109.138 151,109.5C 147.603,108.809 144.269,108.476 141,108.5C 139.556,110.155 137.722,110.822 135.5,110.5C 135.649,109.448 135.483,108.448 135,107.5C 134.196,108.804 133.029,109.471 131.5,109.5C 124.062,109.038 117.396,109.038 111.5,109.5 Z"/></g>
<g><path style="opacity:1" fill="#f4f5ea" d="M 111.5,109.5 C 110.713,111.104 109.38,111.771 107.5,111.5C 107.649,110.448 107.483,109.448 107,108.5C 106.261,109.574 105.261,110.241 104,110.5C 102.413,109.33 100.747,108.33 99,107.5C 93.9713,112.279 88.138,113.946 81.5,112.5C 89.606,112.447 96.2727,109.114 101.5,102.5C 101.833,102.667 102.167,102.833 102.5,103C 101.235,104.337 100.735,105.837 101,107.5C 102.667,105.5 104.333,103.5 106,101.5C 105.948,103.911 105.615,106.244 105,108.5C 107.702,104.419 110.036,100.086 112,95.5C 113.11,93.9632 114.61,93.2965 116.5,93.5C 115.291,98.2392 112.791,102.239 109,105.5C 108.333,107.167 108.333,108.833 109,110.5C 109.671,109.748 110.504,109.414 111.5,109.5 Z"/></g>
</svg>
