<svg xmlns="http://www.w3.org/2000/svg" viewBox="0 0 88 24">
    <g fill="#ff0000">
        <path d="M15.4 5.24h-4.4c-.46-1.6-1.3-2.74-3.46-2.74-2.2 0-3.73 1.38-3.73 4.08 0 2.74 1.6 4.1 4.12 4.1.42 0 .96-.02 1.5-.08v-.04c-.02 1.6-.5 2.34-1.66 2.34-.88 0-1.42-.5-1.6-1.54H3.5c.34 2.3 2 3.52 4.38 3.52 3.3 0 4.6-1.96 4.6-5.46v-4.2c0-.66.3-1.02.8-1.02.24 0 .48.06.66.14l.58-2.14c-.28-.16-.7-.26-1.2-.26-1.46 0-2.48.74-3 2.26zm-4.48 2.2c-.28 0-.56 0-1-.02-.96 0-1.46-.5-1.46-1.46 0-1.02.56-1.5 1.46-1.5.96 0 1.5.62 1.5 1.68v1.3zm13.18 2.46c-1.02 0-1.5-.42-1.5-1.34v-6.7H20.2v6.52c0 2.34 1.48 3.64 4.1 3.64.74 0 1.46-.14 2.02-.42l.14-2.16c-.4.14-.8.2-1.18.2zm9.16-7.28h-2.18v4.24c0 1.02-.5 1.5-1.46 1.5-.92 0-1.46-.5-1.46-1.3V2.62H22.7v6.7c0 2.34 1.5 3.64 4.1 3.64 1.4 0 2.4-.42 2.92-1.12v1h2.18v-10zm8.38 1.46c-1.02 0-2 .42-2.64 1.12v-1h-2.2v8.6h2.2v-4.96c0-1.26.74-2.06 1.84-2.06.74 0 1.14.42 1.14 1.2v5.82h2.2v-6.3c0-1.9-1.2-2.42-2.54-2.42zm13.72 0c-1.02 0-2 .42-2.64 1.12v-1h-2.2v8.6h2.2v-4.96c0-1.26.74-2.06 1.84-2.06.74 0 1.14.42 1.14 1.2v5.82h2.2v-6.3c0-1.9-1.2-2.42-2.54-2.42zm-43.54 4.96c-1.02 0-2 .42-2.64 1.12v-1h-2.2v8.6h2.2v-4.96c0-1.26.74-2.06 1.84-2.06.74 0 1.14.42 1.14 1.2v5.82h2.2v-6.3c0-1.9-1.2-2.42-2.54-2.42zm6.66-4.82c-.76 0-1.48.24-2.02.7v-.7h-2.18v10h2.18v-5.1c0-1.26.78-2.02 1.8-2.02.74 0 1.12.44 1.12 1.14v6h2.18v-6.36c0-2-1.1-2.56-2.46-2.56z"/>
    </g>
</svg>
