<?xml version="1.0" standalone="no"?>
<!DOCTYPE svg PUBLIC "-//W3C//DTD SVG 20010904//EN"
 "http://www.w3.org/TR/2001/REC-SVG-20010904/DTD/svg10.dtd">
<svg version="1.0" xmlns="http://www.w3.org/2000/svg"
 width="1200.000000pt" height="1600.000000pt" viewBox="0 0 1200.000000 1600.000000"
 preserveAspectRatio="xMidYMid meet">

<g transform="translate(0.000000,1600.000000) scale(0.100000,-0.100000)"
fill="#000000" stroke="none">
<path d="M340 15990 c0 -5 27 -32 60 -59 32 -27 83 -72 112 -100 29 -28 56
-51 60 -51 4 0 24 -17 45 -37 21 -21 83 -78 137 -128 54 -49 141 -132 193
-182 51 -51 100 -93 108 -93 8 0 18 -6 22 -13 4 -8 44 -45 88 -83 73 -64 122
-107 211 -189 18 -16 76 -70 130 -120 55 -49 117 -109 140 -132 23 -22 54 -49
68 -58 14 -10 23 -21 20 -26 -3 -5 1 -9 9 -9 8 0 30 -20 48 -45 19 -24 39 -45
44 -45 16 0 111 -92 132 -126 18 -30 22 -34 43 -34 6 0 10 -7 10 -15 0 -9 11
-20 25 -27 13 -6 22 -15 19 -20 -3 -5 3 -12 15 -15 12 -3 21 -12 21 -20 0 -8
4 -12 8 -9 10 6 37 -10 37 -23 0 -14 102 -111 117 -111 8 0 25 -13 38 -28 27
-30 187 -152 200 -152 5 0 19 19 32 43 14 26 32 43 45 45 16 2 22 12 27 40 21
136 27 210 22 302 -14 248 -18 598 -7 604 12 8 12 7 12 -119 -1 -49 3 -106 8
-125 7 -26 8 -16 4 39 -4 54 -3 72 6 67 6 -4 11 -1 11 8 0 9 -4 16 -10 16 -5
0 -10 18 -10 40 0 32 4 40 18 40 20 0 23 -59 47 -745 6 -159 10 -211 24 -247
4 -13 4 -34 0 -48 -4 -14 -8 -20 -8 -15 -1 6 -6 3 -11 -5 -10 -16 14 -50 36
-50 7 0 22 -10 33 -21 12 -13 26 -19 36 -15 9 3 18 0 21 -9 4 -8 14 -15 24
-15 10 0 25 -7 34 -15 8 -8 17 -15 20 -15 10 0 46 -39 46 -50 0 -5 5 -10 10
-10 11 0 33 -47 28 -61 -2 -5 -16 -2 -32 6 -15 8 -32 13 -36 10 -5 -3 -14 -31
-20 -61 -9 -43 -22 -67 -52 -100 -22 -24 -44 -41 -49 -38 -5 3 -8 0 -7 -8 2
-9 -11 -14 -40 -16 -41 -3 -51 -22 -12 -22 13 0 17 -5 14 -15 -5 -11 1 -15 23
-15 16 0 33 -4 39 -8 12 -11 68 -26 168 -47 96 -19 134 -36 179 -80 63 -61 55
-120 -20 -152 -54 -22 -176 -43 -254 -43 -55 0 -69 -3 -69 -15 0 -8 5 -15 10
-15 6 0 10 5 10 10 0 6 25 10 55 10 l55 0 0 -39 c0 -29 -5 -40 -17 -43 -15 -3
-15 -4 0 -17 15 -12 17 -11 17 3 0 9 7 16 15 16 11 0 15 -11 15 -40 0 -29 -4
-40 -15 -40 -8 0 -15 -4 -15 -10 0 -5 7 -10 15 -10 22 0 25 -25 29 -245 7
-280 17 -455 29 -455 5 0 6 -31 2 -80 -5 -56 -4 -80 4 -80 6 0 11 -17 11 -40
0 -22 -4 -40 -10 -40 -5 0 -10 -18 -10 -40 0 -22 4 -40 9 -40 5 0 9 -100 10
-222 1 -123 4 -247 8 -277 3 -37 1 -56 -7 -61 -10 -6 -10 -31 0 -121 10 -85
10 -114 2 -117 -16 -5 -15 -79 1 -84 9 -4 12 -62 14 -241 1 -214 -1 -237 -15
-237 -11 0 -13 -3 -6 -8 17 -10 23 -170 7 -177 -7 -2 -13 -21 -13 -41 0 -27
-7 -41 -26 -56 -15 -13 -23 -26 -19 -36 3 -8 1 -30 -6 -49 -8 -25 -16 -33 -35
-33 -21 0 -24 -4 -24 -39 0 -21 -6 -42 -13 -45 -45 -22 -74 -46 -85 -70 -8
-15 -24 -31 -37 -36 -14 -5 -30 -18 -37 -30 -15 -24 -38 -26 -38 -4 0 14 -3
14 -15 4 -8 -7 -15 -29 -15 -50 0 -29 -8 -46 -40 -80 -22 -24 -40 -49 -40 -56
0 -7 -11 -21 -25 -32 -14 -11 -25 -27 -25 -35 0 -16 -66 -87 -81 -87 -5 0 -9
-6 -9 -14 0 -8 -11 -27 -24 -43 -30 -36 -39 -66 -31 -105 l7 -31 125 6 c69 3
170 3 224 0 l98 -6 -19 -25 c-19 -23 -57 -49 -110 -74 -14 -6 -52 -24 -84 -40
-33 -15 -69 -28 -81 -28 -21 0 -180 -58 -217 -80 -10 -6 -26 -10 -35 -10 -10
0 -31 -7 -47 -15 -15 -8 -35 -15 -44 -15 -8 0 -39 -11 -68 -25 -30 -14 -75
-30 -101 -35 -47 -9 -128 -37 -190 -65 -17 -8 -40 -15 -51 -15 -11 0 -27 -6
-34 -13 -7 -7 -31 -20 -53 -29 -22 -9 -71 -30 -110 -46 -38 -17 -95 -38 -125
-47 -30 -9 -68 -23 -85 -30 -16 -7 -64 -28 -105 -45 -41 -17 -97 -40 -125 -52
-73 -30 -86 -35 -125 -47 -19 -6 -86 -32 -147 -58 l-113 -48 0 -67 0 -68 40 0
c51 0 51 -13 0 -62 -22 -22 -39 -42 -38 -46 2 -4 -24 -33 -57 -64 -58 -57 -59
-57 -34 -67 35 -15 55 -33 63 -59 8 -24 22 -29 29 -9 3 8 10 7 26 -7 28 -25
27 -36 -4 -36 -32 0 -32 -16 0 -24 15 -4 27 -16 31 -31 4 -18 13 -25 30 -25
21 0 24 -4 24 -40 0 -29 -4 -40 -15 -40 -11 0 -15 -11 -15 -40 0 -35 3 -40 23
-40 42 0 80 -71 45 -83 -7 -2 -1 -2 15 0 26 4 27 3 27 -35 0 -43 8 -50 53 -47
25 2 27 -1 27 -37 0 -21 5 -38 10 -38 6 0 10 -18 10 -40 0 -29 4 -40 15 -40
11 0 15 -11 15 -40 0 -29 4 -40 15 -40 24 0 21 -76 -4 -83 -17 -4 -20 -16 -23
-80 -2 -41 -1 -75 2 -75 38 3 40 -1 40 -82 0 -47 4 -80 10 -80 6 0 10 -33 10
-80 0 -64 3 -80 15 -80 8 0 15 7 15 16 0 14 2 15 17 3 15 -13 15 -14 0 -17
-24 -5 -25 -162 -2 -162 11 0 15 -11 15 -40 0 -29 -4 -40 -15 -40 -23 0 -18
-18 12 -45 19 -16 24 -27 17 -32 -16 -12 -26 -317 -11 -336 20 -25 44 -26 83
-6 26 13 40 15 45 8 5 -8 9 -7 15 3 11 20 67 48 93 48 19 0 19 -3 9 -27 -6
-16 -27 -44 -45 -63 -18 -20 -33 -41 -33 -46 0 -6 -9 -19 -20 -29 -11 -10 -20
-27 -20 -37 0 -10 -19 -44 -42 -75 -24 -30 -49 -66 -56 -79 -7 -13 -17 -24
-23 -24 -5 0 -9 -6 -9 -14 0 -11 10 -14 38 -11 64 5 68 7 37 15 -27 7 -25 8
18 9 27 0 47 6 47 12 0 6 7 9 15 5 14 -5 55 25 55 42 0 4 27 27 60 50 33 24
60 47 60 52 0 9 74 50 90 50 6 0 10 -7 10 -15 0 -8 4 -15 9 -15 5 0 12 -11 15
-25 4 -14 11 -25 16 -25 6 0 10 11 10 25 0 14 3 25 8 25 19 0 14 271 -23 1150
-8 190 -30 370 -47 370 -5 0 -6 4 -3 10 3 6 1 10 -4 10 -6 0 -11 14 -11 30 0
17 -5 30 -10 30 -8 0 -9 -111 -4 -360 5 -237 4 -360 -3 -360 -11 0 -26 -45
-43 -134 -14 -66 -30 -60 -30 11 0 23 -5 43 -11 45 -10 3 -38 212 -60 458 -14
145 -16 165 -18 165 -1 0 -4 72 -6 160 -3 88 -10 241 -16 340 -6 99 -12 257
-12 351 -1 146 2 175 16 198 10 14 24 26 31 26 7 0 19 7 26 15 7 8 16 13 20
10 5 -3 10 0 12 6 7 20 106 12 137 -10 26 -18 69 -104 63 -125 -2 -4 2 -14 7
-20 6 -7 13 -30 17 -51 3 -21 10 -49 15 -62 5 -13 6 -23 3 -23 -4 0 -2 -6 3
-12 6 -7 11 -20 11 -28 0 -8 12 -55 27 -105 51 -176 66 -232 95 -365 53 -239
57 -257 63 -266 11 -19 56 -437 57 -534 0 -8 4 -21 9 -29 7 -11 13 -9 30 8 11
11 21 26 21 31 0 6 4 10 9 10 5 0 12 8 15 18 13 39 130 145 181 163 19 7 35
17 35 21 0 4 6 8 13 8 8 0 22 9 32 20 10 11 30 20 44 20 24 -1 24 -2 9 -14
-10 -7 -18 -16 -18 -20 0 -4 -11 -17 -25 -30 -18 -17 -25 -34 -25 -60 0 -36
-21 -51 -34 -23 -3 6 -3 2 0 -10 3 -13 19 -36 35 -53 24 -23 39 -30 70 -30 21
0 39 -4 39 -9 0 -6 10 -9 23 -8 49 4 224 -15 252 -28 17 -7 58 -12 93 -12 62
2 63 2 57 -23 -13 -50 -133 -189 -352 -409 -65 -66 -94 -89 -98 -78 -5 10 -25
15 -77 16 -86 2 -254 18 -287 27 l-24 7 7 -84 c3 -46 9 -146 13 -221 3 -76 9
-138 13 -138 4 0 34 33 66 72 32 40 68 82 79 93 11 11 37 41 57 65 26 31 38
40 38 27 0 -10 -20 -37 -45 -61 -25 -25 -45 -47 -45 -51 0 -8 -94 -118 -144
-167 -21 -21 -37 -40 -35 -42 6 -6 997 196 1368 278 189 42 452 97 585 121
132 25 286 54 341 65 209 42 818 160 995 194 166 31 348 64 701 125 63 12 153
23 200 27 103 8 138 -3 464 -144 326 -140 452 -200 1222 -583 386 -192 704
-349 707 -349 2 0 188 -90 413 -201 224 -110 485 -237 578 -282 296 -142 783
-385 980 -489 105 -55 251 -132 325 -172 156 -82 240 -153 240 -205 0 -26 -6
-33 -54 -55 -30 -14 -58 -26 -62 -26 -14 0 -379 -139 -459 -175 -27 -12 -68
-29 -90 -37 -22 -9 -123 -52 -225 -97 -102 -45 -191 -83 -198 -85 -7 -1 -18
-8 -24 -14 -7 -7 -16 -12 -21 -12 -5 0 -23 -6 -40 -14 -18 -8 -63 -28 -100
-45 -38 -17 -75 -31 -83 -31 -8 0 -12 -4 -9 -10 6 -9 -10 -14 -42 -13 -7 1
-11 -3 -8 -7 3 -5 -8 -11 -25 -15 -16 -4 -32 -11 -35 -16 -4 -5 -15 -9 -26 -9
-10 0 -19 -3 -19 -8 0 -12 -59 -34 -71 -26 -8 4 -9 3 -5 -4 5 -8 0 -12 -12
-12 -11 0 -25 -7 -32 -15 -7 -8 -20 -14 -29 -13 -9 2 -15 -2 -14 -8 1 -7 -11
-14 -28 -18 -17 -3 -28 -10 -24 -16 3 -5 0 -7 -8 -4 -12 4 -91 -28 -137 -56
-8 -5 -28 -11 -43 -15 -15 -3 -25 -9 -23 -14 3 -5 0 -8 -7 -8 -20 1 -117 -45
-117 -55 0 -6 -7 -7 -16 -4 -8 3 -13 2 -10 -3 7 -11 -22 -23 -36 -14 -7 3 -8
1 -4 -5 4 -7 1 -12 -8 -12 -20 0 -86 -32 -86 -42 0 -4 -7 -5 -16 -1 -9 3 -19
1 -23 -4 -8 -12 -160 -86 -177 -86 -7 0 -11 -3 -9 -7 2 -4 -14 -13 -35 -20
-22 -7 -40 -17 -40 -22 0 -4 -9 -8 -21 -8 -11 0 -27 -7 -36 -15 -8 -8 -19 -13
-24 -9 -5 3 -21 -4 -35 -15 -15 -12 -30 -21 -34 -21 -4 0 -25 -8 -46 -17 -22
-9 -43 -16 -47 -15 -5 2 -6 -2 -2 -7 3 -6 -14 -15 -37 -22 -24 -6 -61 -22 -84
-35 -22 -13 -48 -24 -57 -24 -10 0 -17 -4 -17 -10 0 -5 -6 -10 -13 -10 -7 0
-49 -18 -93 -40 -43 -22 -84 -40 -90 -40 -5 0 -34 -11 -62 -25 -29 -14 -55
-25 -58 -25 -4 0 -40 -16 -81 -35 -41 -19 -77 -35 -79 -35 -2 0 -44 -19 -92
-41 -48 -23 -127 -59 -177 -81 -49 -22 -112 -50 -140 -63 -45 -22 -102 -46
-115 -50 -3 -1 -50 -23 -105 -49 -153 -73 -210 -100 -215 -101 -9 -2 -104 -46
-120 -56 -8 -5 -25 -13 -38 -19 -12 -5 -62 -28 -110 -51 -246 -117 -299 -141
-317 -149 -78 -30 -118 -49 -175 -81 -36 -20 -75 -39 -87 -43 -12 -4 -79 -35
-150 -70 -478 -236 -582 -286 -591 -286 -6 0 -12 -3 -14 -7 -1 -5 -21 -16 -43
-27 -22 -10 -53 -25 -70 -34 -39 -20 -47 -24 -130 -64 -38 -18 -72 -35 -75
-38 -3 -3 -59 -33 -125 -66 -66 -34 -137 -71 -158 -82 -21 -12 -43 -22 -50
-22 -7 -1 -41 -16 -77 -35 -36 -19 -153 -77 -260 -130 -107 -53 -202 -100
-210 -105 -8 -6 -25 -14 -37 -20 -12 -5 -56 -25 -98 -45 -143 -67 -377 -146
-432 -147 -37 0 -86 18 -152 56 -43 25 -107 94 -157 168 -69 102 -98 157 -241
458 -30 63 -61 126 -68 140 -23 47 -131 255 -141 275 -6 11 -17 31 -23 44 -53
100 -97 182 -116 216 -12 22 -39 72 -60 110 -21 39 -46 81 -55 95 -9 14 -24
41 -34 60 -10 19 -23 44 -29 55 -74 124 -97 165 -97 172 0 5 -6 15 -12 21 -7
7 -29 41 -48 76 -37 68 -93 164 -227 394 -46 78 -83 144 -83 146 0 2 -19 39
-43 82 -24 44 -60 109 -80 145 -20 37 -60 109 -90 160 -30 52 -67 119 -84 149
-17 30 -63 108 -102 172 -39 65 -71 121 -71 124 0 4 -6 12 -14 18 -7 6 -30 43
-51 81 -84 157 -108 200 -115 205 -4 3 -15 21 -25 40 -10 18 -24 40 -31 48 -8
7 -14 20 -14 27 0 7 -9 15 -21 17 -25 4 -60 58 -42 65 7 3 13 9 13 15 0 6 -7
7 -16 4 -8 -3 -12 -2 -9 3 3 5 1 12 -4 15 -5 4 -13 2 -16 -4 -9 -14 -35 6 -35
26 0 8 -5 14 -11 14 -12 0 -4 -34 16 -66 9 -13 10 -26 3 -37 -9 -17 -1 -22 30
-18 9 2 13 -13 12 -51 -1 -81 12 -198 21 -198 5 0 9 -11 9 -24 0 -14 4 -27 9
-31 6 -3 10 -13 10 -23 0 -9 3 -32 7 -49 5 -26 3 -33 -10 -33 -18 0 -23 -45
-6 -55 6 -3 10 -28 10 -56 0 -39 3 -49 16 -49 13 0 14 -3 4 -15 -9 -10 -9 -26
-2 -59 10 -50 8 -56 -21 -56 -16 0 -19 5 -14 30 5 23 3 30 -9 30 -10 0 -14 -6
-11 -17 3 -10 8 -39 12 -64 5 -38 3 -48 -11 -53 -14 -5 -15 -9 -5 -19 9 -9 14
-9 21 3 8 12 10 12 15 -2 10 -27 -2 -36 -41 -31 -26 3 -35 0 -32 -9 3 -8 23
-13 53 -13 30 0 50 -5 52 -12 3 -7 -2 -13 -10 -13 -8 0 -17 -9 -20 -21 -3 -12
-10 -18 -15 -15 -11 7 -45 -28 -35 -37 3 -4 19 -7 35 -7 16 0 28 -5 28 -13 0
-14 -35 -47 -50 -47 -19 0 -10 -21 12 -30 13 -5 17 -9 11 -9 -19 -1 -16 -19 7
-38 15 -13 20 -30 20 -70 0 -46 -2 -52 -23 -55 -21 -3 -21 -4 10 -32 20 -18
33 -40 35 -60 2 -19 9 -31 18 -31 11 0 14 10 13 40 -2 37 -1 39 12 21 17 -22
20 -52 6 -61 -5 -3 -7 -30 -4 -60 4 -38 2 -55 -6 -55 -6 0 -11 -12 -11 -26 0
-23 2 -25 16 -13 14 11 18 10 30 -6 18 -24 18 -35 -1 -35 -11 0 -15 -11 -15
-43 0 -45 -14 -65 -55 -82 -19 -8 -19 -9 3 -12 27 -5 29 -19 2 -26 -12 -3 -20
-14 -20 -26 0 -26 8 -27 26 -3 12 15 13 14 14 -15 0 -18 -5 -33 -11 -33 -7 0
-26 -15 -44 -34 -25 -27 -31 -40 -27 -65 4 -29 7 -31 43 -31 28 0 39 -4 39
-15 0 -9 -9 -15 -25 -15 l-25 0 0 -120 0 -120 -30 0 c-28 0 -30 -2 -30 -40 0
-30 -4 -40 -16 -40 -14 0 -15 -10 -9 -77 4 -43 11 -79 16 -81 5 -2 9 -21 9
-43 0 -28 4 -39 15 -39 11 0 15 11 15 40 0 29 4 40 15 40 11 0 15 -11 15 -40
0 -22 5 -40 10 -40 6 0 10 -18 10 -40 0 -29 4 -40 15 -40 19 0 19 -26 0 -34
-18 -7 -20 -46 -2 -46 9 0 12 -13 9 -42 -2 -29 0 -39 6 -29 12 17 33 5 25 -14
-3 -10 1 -15 15 -15 31 0 52 -11 52 -26 0 -15 -12 -17 -72 -16 -21 0 -40 -4
-43 -9 -4 -5 1 -9 9 -9 23 0 19 -17 -5 -23 -27 -7 -15 -27 17 -27 20 0 24 -5
24 -29 0 -36 23 -61 56 -61 13 0 24 -4 24 -10 0 -5 -16 -10 -35 -10 -34 0 -35
-1 -35 -40 0 -29 -4 -40 -15 -40 -8 0 -15 7 -15 16 0 13 -3 14 -14 4 -8 -6
-13 -17 -10 -24 2 -6 -2 -20 -10 -31 -11 -15 -18 -17 -26 -8 -9 8 -17 6 -31
-8 -22 -22 -23 -31 -4 -84 13 -36 13 -43 -2 -73 -21 -39 -26 -40 -43 -4 l-14
27 -4 -28 c-2 -15 -8 -27 -13 -27 -6 0 -20 -12 -33 -27 -16 -18 -28 -24 -41
-20 -14 6 -15 10 -5 22 7 9 9 19 5 23 -4 4 -10 1 -12 -5 -3 -7 -11 -13 -19
-13 -21 0 -17 -44 5 -64 15 -14 24 -15 40 -7 26 14 41 14 41 0 0 -14 -25 -35
-60 -51 -21 -9 -22 -12 -7 -15 20 -5 23 -29 5 -36 -9 -3 -7 -10 7 -23 11 -11
21 -27 21 -36 1 -10 5 -29 8 -43 6 -24 4 -25 -32 -25 -36 0 -72 -22 -72 -45 0
-4 -8 -14 -18 -21 -16 -13 -16 -13 1 -14 9 0 17 -7 17 -15 0 -14 -45 -21 -102
-17 -9 1 -26 -10 -36 -23 -11 -14 -25 -25 -31 -25 -20 0 -12 -29 15 -54 21
-19 25 -30 20 -50 -4 -17 -13 -26 -26 -26 -11 0 -20 -7 -20 -15 0 -8 9 -15 20
-15 22 0 26 -16 10 -40 -9 -13 -10 -13 -10 0 -1 12 -3 12 -14 -2 -7 -10 -19
-18 -26 -18 -7 0 -19 8 -27 18 -13 16 -14 16 -11 -2 2 -10 12 -24 23 -30 11
-6 22 -12 24 -13 6 -4 -31 -43 -41 -43 -4 0 -8 11 -8 25 0 16 -6 25 -15 25
-12 0 -15 -20 -15 -120 0 -113 -1 -120 -20 -120 -16 0 -20 7 -20 33 0 17 -3
42 -6 55 -10 37 -34 7 -34 -44 0 -40 -2 -44 -25 -44 -20 0 -25 -5 -25 -24 0
-13 -7 -29 -15 -36 -8 -7 -15 -18 -15 -25 0 -8 -11 -22 -25 -33 -28 -22 -33
-42 -10 -42 21 0 21 -83 0 -100 -12 -10 -15 -10 -15 4 0 9 -7 16 -15 16 -11 0
-15 -12 -15 -48 0 -48 -20 -82 -47 -82 -6 0 -16 -7 -23 -15 -11 -13 635 -15
5804 -15 l5816 0 0 3313 0 3314 -22 -1 c-14 -1 -24 6 -26 18 -3 15 1 18 22 14
26 -5 26 -4 26 53 0 34 -4 59 -10 59 -16 0 -70 42 -70 54 0 8 3 8 8 0 4 -6 21
-14 38 -17 29 -5 31 -4 32 23 1 26 -1 28 -17 18 -15 -9 -23 -7 -42 8 -20 15
-24 27 -22 64 3 79 4 80 32 73 14 -3 32 -10 39 -16 9 -7 12 310 12 1582 0 971
-4 1590 -9 1586 -5 -3 -12 -19 -16 -36 -6 -27 -80 -147 -107 -174 -7 -7 -8 27
-3 105 4 63 8 187 10 275 3 170 50 578 81 689 31 118 37 260 40 1031 1 424 1
766 -1 760 -4 -10 -11 -47 -55 -300 -19 -106 -82 -654 -95 -820 -3 -44 -12
-136 -20 -205 -8 -69 -24 -219 -35 -335 -20 -211 -61 -590 -80 -740 -5 -44
-12 -114 -15 -155 -9 -107 -50 -437 -86 -695 -17 -121 -33 -247 -36 -280 -3
-33 -12 -68 -21 -78 -8 -9 -13 -19 -11 -21 9 -9 189 -35 287 -42 56 -3 102
-10 102 -14 0 -4 10 -12 23 -17 21 -10 20 -11 -14 -18 l-35 -7 -13 -106 c-7
-59 -19 -152 -27 -206 -8 -55 -14 -121 -14 -147 0 -41 -4 -50 -32 -73 -18 -15
-39 -32 -47 -38 -12 -10 -14 -9 -8 4 7 19 -4 29 -53 48 -19 8 -51 24 -71 37
-20 13 -61 33 -90 44 -59 23 -68 32 -69 69 l-1 25 -16 -22 c-20 -30 -37 -29
-151 7 -92 30 -228 54 -244 44 -17 -11 -7 -44 15 -48 42 -8 182 -29 262 -41
49 -6 73 -13 63 -17 -10 -4 -18 -14 -18 -21 0 -11 -26 -15 -120 -19 -130 -6
-150 -13 -150 -59 0 -22 -12 -64 -26 -87 -1 -1 -13 3 -28 9 -29 13 -46 59 -46
122 0 30 -5 40 -25 49 -29 13 -61 58 -49 67 5 3 10 21 11 39 0 19 10 42 20 52
19 17 28 67 59 319 5 42 13 62 36 84 29 29 30 30 108 23 105 -9 158 -16 203
-27 49 -13 66 6 67 71 0 25 3 81 6 126 l7 80 -65 22 c-35 12 -75 22 -87 22
-19 0 -21 3 -12 14 13 15 20 97 26 271 4 131 3 125 20 119 11 -5 15 -21 15
-61 0 -68 21 -147 62 -235 48 -102 50 -99 73 103 9 79 29 253 46 386 16 133
29 257 29 276 l0 34 -98 1 c-54 1 -141 6 -193 12 -91 11 -163 6 -184 -11 -10
-7 -73 -30 -210 -75 -87 -28 -170 -77 -237 -138 -31 -28 -38 -76 -13 -96 8 -7
63 -25 122 -41 60 -16 113 -36 119 -44 11 -15 11 -68 -1 -96 -3 -10 -2 -20 4
-23 12 -8 41 55 41 88 0 23 17 46 33 46 5 0 4 -6 -2 -14 -12 -14 -5 -46 10
-46 17 0 9 -18 -11 -23 -22 -6 -27 -36 -7 -56 8 -10 8 -12 0 -7 -17 9 -28 -14
-12 -26 11 -7 11 -11 2 -15 -7 -2 -13 -9 -13 -14 0 -6 4 -7 10 -4 18 11 11
-27 -7 -41 -16 -12 -16 -13 -2 -14 34 0 2 -196 -35 -222 -6 -4 0 -8 13 -8 20
0 21 -2 11 -15 -7 -8 -9 -15 -5 -15 4 0 2 -7 -5 -15 -10 -12 -9 -16 2 -20 9
-4 15 -20 16 -38 1 -24 -8 -40 -34 -64 -19 -18 -43 -33 -53 -33 -39 0 -35 94
4 112 28 13 40 67 18 83 -10 8 -15 32 -16 78 0 37 -4 67 -9 67 -7 0 -12 -37
-12 -92 0 -9 -3 -15 -8 -12 -4 3 -8 -4 -8 -14 0 -11 -7 -25 -15 -32 -18 -15
-108 -14 -137 1 -31 16 -118 20 -169 8 -37 -10 -59 -9 -119 5 -40 9 -107 16
-149 16 -42 0 -92 5 -111 11 -19 6 -91 13 -160 15 -69 3 -138 5 -155 6 -16 0
-66 0 -110 -1 -44 0 -106 2 -139 5 -35 4 -80 2 -115 -6 -31 -7 -95 -13 -143
-12 l-86 1 -11 -31 c-6 -18 -8 -34 -3 -37 16 -11 49 -90 41 -98 -4 -4 -2 -33
5 -63 7 -30 11 -70 9 -88 -2 -23 2 -35 13 -39 10 -4 12 -8 5 -12 -8 -5 -7 -15
2 -34 14 -31 35 -43 43 -23 3 8 15 11 29 8 21 -3 23 -1 18 19 -7 30 -32 59
-50 59 -12 0 -18 13 -14 34 1 5 -4 13 -11 17 -10 7 -10 9 0 9 16 0 16 37 0 43
-10 4 -9 6 1 6 11 1 11 4 0 17 -8 10 -9 18 -2 22 19 13 23 53 5 59 -21 7 -52
33 -52 43 0 10 130 21 158 14 12 -4 22 -12 22 -20 0 -7 10 -20 22 -28 18 -13
19 -18 8 -31 -10 -12 -10 -15 1 -15 9 0 10 -3 2 -11 -7 -7 -8 -21 -3 -38 8
-30 7 -61 -4 -79 -4 -6 -5 -15 -3 -19 9 -17 -11 -46 -33 -50 -28 -4 -40 -13
-18 -13 9 0 21 -7 28 -15 10 -12 9 -15 -6 -15 -12 -1 -6 -7 16 -17 26 -12 31
-17 18 -20 -21 -5 -23 -19 -6 -29 8 -5 6 -11 -6 -20 -10 -7 -13 -15 -7 -18 6
-4 8 -12 5 -19 -3 -8 6 -25 19 -39 13 -14 27 -33 30 -42 4 -9 11 -16 16 -16 5
0 11 -7 15 -15 3 -10 -6 -19 -27 -29 -44 -20 -101 -31 -93 -18 4 6 -13 15 -41
21 -43 9 -50 8 -65 -9 -17 -21 -63 -27 -73 -10 -4 6 -27 10 -52 9 -38 -2 -48
1 -74 29 -18 19 -25 33 -18 37 6 4 7 14 4 24 -4 9 -9 38 -12 66 -3 29 -12 54
-22 62 -9 7 -12 13 -8 13 5 0 2 7 -6 14 -9 10 -13 27 -10 48 11 74 7 88 -29
121 l-35 32 -139 -6 c-232 -11 -463 -10 -532 3 -64 12 -65 12 -88 -15 -13 -16
-25 -46 -29 -74 -9 -79 -33 -147 -56 -161 -16 -11 -40 -11 -117 -2 -198 22
-281 30 -427 40 -365 25 -445 30 -464 30 -23 0 -61 36 -61 59 -1 36 -36 60
-98 67 -56 6 -64 10 -113 60 -32 32 -62 54 -75 54 -40 0 -70 -35 -84 -99 -17
-80 -42 -121 -76 -121 -26 0 -64 16 -74 31 -4 6 -2 638 2 749 1 14 0 45 -1 70
-1 25 1 92 4 150 3 58 8 193 10 300 3 107 7 258 11 335 3 77 7 205 9 285 2 80
6 231 9 335 3 105 8 226 11 270 10 147 51 1199 52 1330 1 28 3 114 5 193 2 79
1 148 -3 154 -7 10 -22 12 -99 10 -88 -3 -367 7 -485 17 -205 17 -450 25 -705
21 -8 0 -37 2 -65 4 -67 6 -374 17 -568 21 -153 3 -158 3 -172 -18 -10 -17
-14 -62 -15 -182 -1 -88 -3 -281 -6 -430 -7 -367 -7 -361 5 -383 10 -18 7
-316 -4 -395 -3 -22 0 -48 9 -65 9 -19 11 -43 6 -81 -4 -30 -5 -66 -3 -80 2
-14 3 -79 3 -143 0 -80 4 -129 14 -152 11 -26 12 -44 4 -82 -11 -53 -13 -472
-3 -724 7 -187 6 -180 18 -180 5 0 4 -6 -2 -14 -19 -22 -18 -506 0 -554 l10
-26 25 32 c34 42 74 43 115 3 16 -16 29 -36 29 -44 0 -8 7 -18 16 -21 13 -5
14 -9 4 -21 -7 -8 -19 -15 -27 -15 -7 0 -25 -7 -38 -16 -15 -10 -32 -13 -42
-9 -38 16 -83 23 -89 14 -14 -24 -14 -99 0 -134 12 -28 13 -42 5 -57 -6 -12
-11 -81 -10 -169 0 -127 -2 -151 -17 -166 -15 -15 -15 -16 -1 -11 13 5 18 -1
23 -25 6 -26 2 -36 -18 -52 -24 -19 -25 -23 -15 -60 6 -22 15 -45 21 -52 11
-14 -15 -58 -43 -73 -21 -12 -131 -12 -247 -1 -70 7 -87 12 -110 35 -28 26
-66 34 -77 16 -3 -5 -15 -10 -25 -10 -10 0 -37 -23 -60 -52 -33 -42 -52 -56
-88 -66 -55 -16 -92 -47 -92 -76 0 -41 11 -62 38 -73 39 -16 247 -23 262 -9 8
8 16 4 32 -16 11 -16 28 -28 39 -28 11 0 42 -11 69 -25 27 -14 82 -36 123 -50
119 -40 165 -62 204 -100 20 -19 34 -36 32 -38 -2 -1 -12 -9 -23 -17 -13 -10
-49 -15 -117 -16 -89 -2 -100 0 -109 17 -6 10 -17 19 -25 19 -8 0 -15 3 -15 8
0 13 -54 37 -76 34 -16 -2 -20 -8 -17 -21 3 -13 -2 -20 -21 -25 -28 -7 -36
-36 -10 -36 8 0 13 -4 9 -9 -3 -5 -22 -8 -43 -6 -36 5 -36 4 -9 -7 47 -21 30
-28 -62 -25 -95 2 -102 -8 -11 -16 189 -17 237 -72 145 -165 l-45 -45 43 7
c23 4 71 16 106 27 36 11 130 31 210 45 172 31 216 29 516 -17 110 -17 218
-32 240 -33 46 -3 90 -19 101 -37 5 -9 -5 -10 -47 -4 -30 5 -142 9 -250 10
-223 1 -359 -14 -401 -45 -15 -11 -32 -20 -37 -20 -25 0 -21 -29 15 -96 34
-64 42 -72 66 -72 16 1 31 -2 34 -5 3 -3 1 -37 -6 -76 -9 -52 -9 -75 0 -91 20
-38 35 -16 42 65 4 43 10 80 13 83 3 3 29 -2 59 -11 29 -9 63 -17 76 -17 13 0
40 -11 60 -25 23 -16 58 -28 91 -32 30 -3 65 -13 78 -21 23 -15 23 -19 16
-106 -6 -84 -26 -183 -40 -206 -8 -14 -61 -40 -67 -34 -3 2 -11 -2 -18 -11 -7
-8 -18 -15 -25 -15 -7 0 -18 -7 -25 -15 -7 -8 -21 -15 -31 -15 -11 0 -19 -5
-19 -11 0 -7 -7 -8 -17 -4 -10 4 -40 9 -68 11 -36 3 -55 11 -69 27 -12 14 -31
23 -55 24 -20 2 -52 5 -71 9 l-35 6 22 -21 c12 -11 26 -21 31 -21 5 0 20 -8
33 -18 22 -17 62 -28 194 -54 50 -9 151 -43 170 -57 5 -4 42 -20 80 -36 88
-36 98 -43 134 -91 26 -36 35 -41 96 -52 37 -7 70 -11 73 -8 3 3 -7 15 -21 26
-31 24 -46 84 -28 111 6 11 11 26 11 34 0 10 10 15 29 15 60 0 151 -113 151
-188 0 -25 6 -32 31 -41 18 -6 41 -11 53 -11 12 0 40 -7 63 -15 64 -22 78 -12
46 36 -14 21 -29 39 -34 39 -13 0 -77 59 -101 92 -11 17 -22 44 -23 62 -3 31
-3 31 74 51 42 10 86 19 98 20 13 1 26 5 30 8 20 21 78 -4 213 -92 91 -59 109
-76 110 -102 1 -49 124 -105 169 -77 12 7 21 17 21 21 0 12 -39 44 -75 62 -43
22 -67 66 -99 180 -16 55 -49 141 -74 190 -25 50 -46 105 -47 123 -3 35 -39
72 -74 75 -17 1 -20 8 -19 43 0 40 24 76 52 81 11 2 36 51 36 72 0 9 -13 31
-28 49 -23 27 -50 40 -175 82 -81 28 -155 50 -163 50 -21 0 -12 24 11 28 9 2
15 0 11 -6 -3 -5 5 -7 18 -5 12 3 144 -14 292 -36 610 -93 995 -151 1099 -165
191 -26 529 -84 557 -95 15 -5 32 -20 38 -32 16 -29 3 -41 -94 -79 -99 -39
-258 -119 -440 -222 -76 -43 -142 -78 -146 -78 -4 0 -13 -6 -19 -14 -7 -8 -26
-22 -44 -31 -94 -48 -353 -213 -431 -275 -40 -32 -91 -69 -113 -83 -22 -14
-55 -39 -74 -56 -19 -18 -54 -41 -77 -53 -62 -30 -114 -23 -522 66 -428 94
-414 91 -590 121 -80 14 -305 57 -500 95 -195 38 -474 89 -620 114 -146 24
-425 74 -620 110 -499 91 -967 160 -1001 147 -15 -5 -14 -12 10 -66 58 -126
112 -161 307 -195 386 -68 421 -76 440 -92 18 -14 -6 -68 -33 -74 -44 -11
-420 68 -478 101 -42 24 -134 50 -143 40 -3 -3 0 -5 7 -5 8 0 6 -8 -5 -26 -24
-36 -59 -29 -60 11 -1 40 -13 74 -37 109 -25 35 -39 98 -41 185 -1 55 2 66 22
82 19 15 22 24 17 52 -10 54 16 95 73 115 45 15 82 -1 82 -37 0 -14 4 -32 9
-40 13 -21 75 -7 130 28 l46 31 -37 0 c-29 0 -41 6 -58 29 l-21 30 21 11 c11
6 28 9 38 6 9 -2 72 -7 140 -11 l122 -6 138 41 c75 23 157 48 182 57 79 25
202 60 295 83 85 21 143 46 132 57 -3 3 -61 4 -130 4 -137 -2 -140 0 -151 61
-5 26 -13 39 -29 43 -72 20 -101 51 -94 97 10 60 127 96 366 112 41 3 79 10
85 16 20 20 -1 238 -34 345 -5 17 -12 53 -16 80 -13 102 -90 445 -109 491 -8
19 -27 37 -51 49 -35 17 -39 17 -69 1 -17 -10 -44 -28 -60 -42 -64 -55 -112
-20 -114 84 -1 37 -5 103 -10 147 -6 44 -13 206 -16 360 -4 154 -8 327 -11
385 -2 58 -8 256 -14 440 -5 184 -12 355 -14 380 -3 25 -8 277 -12 560 -3 283
-7 517 -9 521 -4 6 -6 850 -3 1289 2 235 4 277 17 288 12 10 13 15 4 18 -15 7
-18 84 -3 84 6 0 10 18 10 40 0 22 -4 40 -10 40 -6 0 -9 33 -8 83 1 45 3 63 5
40 3 -35 8 -43 23 -43 18 0 20 7 19 66 -1 61 8 95 18 66 12 -31 20 4 15 66 -3
54 -1 71 12 84 18 18 21 34 8 40 -13 5 -22 102 -11 119 8 12 10 12 19 -1 8
-13 13 -12 32 8 20 19 21 24 8 33 -13 8 -11 13 13 34 31 27 34 42 10 47 -15 3
-15 4 0 17 15 12 17 11 17 -3 0 -9 7 -16 15 -16 11 0 15 11 15 40 0 22 5 40
10 40 6 0 10 18 10 40 0 29 4 40 15 40 11 0 15 11 15 41 0 31 3 40 14 36 9 -4
19 9 31 39 9 24 21 44 26 44 5 0 9 10 9 23 0 12 7 31 15 41 20 27 19 48 -5 68
-24 21 -77 49 -87 46 -4 -1 -42 6 -84 16 -66 15 -81 23 -117 62 -23 24 -42 48
-42 54 0 5 -16 10 -36 10 -30 0 -45 8 -80 44 -36 35 -44 50 -44 80 l0 36 -45
0 c-40 0 -45 3 -51 26 -4 15 -12 23 -19 20 -14 -5 -50 32 -59 62 -4 11 -16 22
-26 25 -11 3 -20 14 -20 24 0 10 -9 26 -20 36 -11 9 -20 22 -20 29 0 7 -14 22
-30 33 -19 12 -35 35 -42 58 -6 21 -19 42 -29 47 -9 5 -29 30 -43 55 -15 25
-31 45 -35 45 -5 0 -14 -14 -22 -31 l-12 -31 -20 41 -19 41 -1134 0 c-721 0
-1134 -4 -1134 -10z m2768 -508 c3 -9 -2 -13 -14 -10 -9 1 -19 9 -22 16 -3 9
2 13 14 10 9 -1 19 -9 22 -16z m-238 -1437 c6 -8 9 -19 5 -24 -3 -6 0 -8 8 -5
8 3 21 -5 30 -19 9 -13 22 -30 29 -38 19 -19 30 -49 18 -49 -6 0 -10 7 -10 15
0 9 -11 20 -24 25 -13 5 -27 17 -30 28 -4 10 -18 25 -32 33 -14 7 -30 21 -35
31 -8 14 -6 18 9 18 11 0 25 -7 32 -15z m2037 -647 c54 -37 56 -82 7 -131 -37
-37 -78 -36 -115 4 -47 50 -37 101 26 134 39 19 43 19 82 -7z m268 -46 c23
-37 35 -39 60 -12 10 11 15 20 11 20 -4 0 6 11 22 25 17 14 39 25 49 25 26 0
93 -65 93 -90 0 -34 -34 -79 -72 -94 -31 -12 -37 -18 -30 -34 12 -32 124 -162
140 -162 4 0 19 19 32 43 42 75 82 94 127 58 24 -19 33 -34 33 -56 0 -46 -25
-72 -85 -91 -31 -10 -51 -21 -45 -24 14 -8 30 -112 23 -140 -4 -17 4 -31 36
-62 56 -52 77 -100 61 -139 -15 -35 -31 -40 -141 -48 -74 -5 -90 -10 -118 -34
-45 -37 -88 -36 -126 3 -35 37 -66 38 -99 5 -18 -18 -36 -25 -63 -25 -33 0
-42 6 -68 41 -29 40 -77 74 -88 63 -3 -3 -12 0 -19 7 -12 10 -11 21 5 68 20
56 24 122 12 160 -6 20 -9 20 -75 6 -18 -4 -28 0 -38 15 -15 25 -9 38 26 51
22 8 29 7 42 -11 17 -22 50 -19 50 5 0 7 7 18 15 25 15 13 45 104 45 139 0 18
10 40 36 79 7 11 80 19 95 11 21 -11 27 -3 33 45 5 37 -4 46 -22 23 -15 -18
-87 -9 -107 13 -25 27 -30 85 -11 115 37 56 118 45 161 -23z m-568 43 c43 -18
53 -30 53 -66 0 -44 -22 -63 -63 -55 -29 5 -38 13 -47 41 -12 37 -5 95 11 95
5 0 26 -7 46 -15z m1023 -36 c38 -39 35 -70 -12 -113 -26 -24 -37 -27 -67 -22
-73 11 -104 88 -56 140 36 39 93 37 135 -5z m207 -1 c18 -13 36 -31 39 -41 16
-50 -51 -116 -99 -98 -61 24 -75 94 -26 135 37 32 44 32 86 4z m248 -9 c19
-17 35 -37 35 -45 0 -23 -21 -58 -46 -77 -50 -37 -134 14 -134 81 0 24 62 69
97 71 7 1 28 -13 48 -30z m238 -4 c40 -37 43 -45 26 -78 -39 -75 -107 -91
-153 -36 -39 47 -30 105 21 133 42 23 64 19 106 -19z m219 -3 c41 -38 41 -39
28 -78 -14 -43 -44 -81 -71 -89 -28 -9 -88 24 -105 58 -20 37 -12 87 19 114
47 44 78 42 129 -5z m-1614 -196 c36 -33 38 -45 18 -84 -34 -65 -118 -68 -157
-6 -38 63 -21 115 45 133 34 9 41 5 94 -43z m-297 -3 c5 -15 3 -29 -10 -45
-10 -13 -16 -29 -14 -35 10 -27 -26 -11 -41 18 -14 29 -14 33 6 60 25 34 47
34 59 2z m1208 -13 c17 0 32 -47 25 -78 -17 -72 -99 -98 -138 -45 -22 30 -25
86 -5 109 7 8 26 21 43 28 26 11 34 11 47 0 8 -8 21 -14 28 -14z m685 -25 c42
-38 42 -52 2 -113 -48 -74 -138 -40 -138 53 0 41 15 63 57 81 40 18 36 19 79
-21z m-243 -8 c29 -23 41 -55 28 -79 -24 -45 -44 -59 -70 -49 -56 21 -62 69
-14 117 27 27 33 28 56 11z m-449 -201 c28 -25 31 -34 29 -77 -1 -35 -47 -79
-81 -79 -53 0 -93 86 -62 132 35 54 71 61 114 24z m450 -23 c38 -36 39 -93 2
-126 -31 -26 -41 -28 -73 -8 -36 23 -52 67 -35 100 14 26 52 60 68 61 6 0 23
-12 38 -27z m221 -11 c36 -38 36 -82 -1 -123 -24 -26 -33 -30 -58 -25 -31 7
-64 52 -64 89 0 25 57 87 80 87 9 0 28 -13 43 -28z m-453 -27 c0 -7 -6 -18
-14 -24 -11 -9 -15 -6 -19 16 -3 15 -3 32 0 36 6 11 33 -12 33 -28z m-484 -32
c-11 -11 -19 6 -11 24 8 17 8 17 12 0 3 -10 2 -21 -1 -24z m-958 -105 c20 -20
15 -76 -8 -88 -16 -9 -22 -6 -35 19 -19 38 -19 51 3 67 21 17 25 17 40 2z
m1216 -49 c32 -38 28 -60 -21 -109 l-34 -35 -30 33 c-37 41 -37 75 0 113 37
37 53 37 85 -2z m-931 -46 c-6 -15 -29 -17 -38 -4 -3 5 0 21 7 36 l12 26 12
-22 c6 -13 10 -29 7 -36z m1388 17 c31 -30 31 -35 8 -97 -16 -44 -92 -42 -109
3 -16 42 -12 64 19 95 37 36 45 36 82 -1z m219 -1 c33 -35 33 -62 -2 -111 -27
-39 -68 -38 -102 3 -14 17 -26 40 -26 53 0 40 44 83 87 85 7 1 26 -13 43 -30z
m-445 -9 c8 -13 -14 -42 -26 -34 -5 3 -9 14 -9 25 0 20 24 26 35 9z m-691
-179 c17 -17 26 -31 23 -31 -4 0 -3 -9 3 -21 16 -28 5 -66 -27 -95 l-26 -24
32 -34 c24 -25 33 -43 33 -68 0 -41 -26 -104 -49 -116 -15 -9 -13 -14 15 -48
46 -56 44 -106 -5 -163 l-36 -43 26 -21 c15 -12 33 -38 41 -58 14 -33 13 -38
-5 -70 -44 -73 -91 -79 -149 -21 -41 40 -70 52 -70 28 0 -21 -57 -54 -86 -48
-17 3 -34 20 -54 54 -23 42 -26 55 -18 79 5 15 16 33 23 39 20 16 64 20 78 6
7 -7 28 -22 48 -34 36 -21 36 -22 53 -3 10 11 34 27 53 36 l35 17 -28 18 c-16
9 -38 27 -48 39 -24 27 -38 27 -62 0 -26 -30 -63 -42 -80 -28 -8 6 -14 8 -14
5 0 -4 -13 2 -30 14 -21 15 -30 30 -30 50 0 16 -5 30 -11 32 -19 6 17 70 51
93 16 11 30 24 30 28 0 5 -4 6 -9 2 -6 -3 -28 12 -50 33 -29 27 -41 47 -41 66
0 29 27 96 39 96 3 0 15 7 25 15 19 14 18 15 -9 36 -34 27 -56 78 -48 110 11
44 53 79 95 79 21 0 38 -4 38 -9 0 -5 8 -12 18 -15 9 -4 29 -13 44 -21 28 -16
25 -18 93 44 13 12 52 -9 89 -48z m-726 33 c22 -15 31 -54 12 -54 -5 0 -10 -6
-10 -13 0 -22 -30 -56 -45 -51 -23 9 -56 74 -49 96 5 18 34 36 59 37 6 1 21
-6 33 -15z m245 -77 c11 -34 0 -49 -30 -41 -21 6 -34 37 -25 62 7 23 45 8 55
-21z m1387 11 c39 -29 40 -67 1 -110 l-29 -33 -28 20 c-15 12 -33 37 -40 57
-12 34 -11 38 13 62 31 32 45 32 83 4z m223 -13 c23 -29 27 -42 22 -66 -8 -35
-46 -79 -68 -79 -50 0 -96 52 -89 102 4 32 54 78 85 78 13 0 33 -14 50 -35z
m-453 10 c14 -17 5 -68 -17 -86 -12 -11 -18 -9 -34 11 -23 30 -25 70 -4 70 8
0 15 5 15 10 0 15 26 12 40 -5z m-1365 -185 c20 -17 5 -54 -33 -78 -28 -18
-37 -20 -43 -10 -11 16 -12 92 -2 102 10 9 62 0 78 -14z m1295 -38 c0 -4 13
-13 30 -19 27 -10 28 -13 18 -41 -7 -17 -16 -29 -20 -26 -4 3 -11 -2 -14 -10
-10 -26 -31 -18 -48 18 -20 42 -20 42 2 65 18 21 32 26 32 13z m502 -19 c34
-32 36 -70 7 -107 -25 -31 -47 -33 -83 -5 -38 30 -36 79 5 113 17 14 33 26 37
26 3 0 19 -12 34 -27z m-1865 -189 c-9 -9 -28 6 -21 18 4 6 10 6 17 -1 6 -6 8
-13 4 -17z m1867 -53 c31 -33 30 -48 -9 -96 l-24 -29 -35 17 c-42 19 -55 56
-35 94 13 23 39 41 65 42 5 1 23 -12 38 -28z m-476 10 c8 -4 12 -19 10 -32 -2
-18 -9 -24 -28 -24 -19 0 -26 6 -28 24 -3 20 11 41 28 41 3 0 11 -4 18 -9z
m212 -31 c0 -5 -7 -10 -15 -10 -8 0 -15 5 -15 10 0 6 7 10 15 10 8 0 15 -4 15
-10z m-1564 -132 c6 -4 9 -19 7 -32 -4 -19 -9 -22 -31 -17 -15 3 -36 11 -47
18 -19 11 -19 12 -2 31 18 20 48 20 73 0z m1821 -75 c28 -32 29 -56 2 -99 -31
-51 -88 -42 -114 19 -16 37 -5 66 33 90 37 23 53 21 79 -10z m-1818 -140 c16
-16 16 -23 5 -63 -6 -25 -12 -41 -13 -36 -1 5 -9 2 -20 -8 -17 -16 -19 -15
-35 8 -9 14 -16 30 -16 36 0 5 -4 10 -10 10 -19 0 -10 39 12 54 29 21 55 20
77 -1z m515 -32 c34 -22 40 -23 50 -10 14 20 70 49 93 49 10 0 33 -13 51 -29
44 -41 44 -83 -3 -133 -18 -21 -43 -38 -54 -38 -12 0 -38 16 -60 35 -21 19
-42 35 -47 35 -4 0 -25 -12 -45 -26 -69 -47 -143 -9 -143 73 0 25 7 40 25 54
44 33 70 31 133 -10z m1293 -63 c61 -58 -15 -151 -84 -103 -34 24 -38 63 -9
94 32 33 64 36 93 9z m-693 -19 c-5 -9 -44 1 -44 11 0 13 34 17 42 6 4 -6 5
-13 2 -17z m-1111 -151 c17 -34 17 -39 2 -67 -21 -41 -54 -41 -77 0 -20 34
-23 71 -8 99 16 29 61 12 83 -32z m471 31 c21 -10 76 -77 76 -94 0 -3 -7 -5
-15 -5 -8 0 -15 -4 -15 -10 0 -17 -43 -50 -64 -50 -39 1 -86 56 -86 100 0 23
45 70 66 70 7 0 24 -5 38 -11z m225 -24 c47 -54 43 -75 -27 -153 l-23 -26 -38
40 c-22 21 -42 54 -46 72 -6 28 -2 37 28 67 44 44 67 44 106 0z m1094 -60 c15
-14 27 -36 27 -48 0 -23 -43 -77 -61 -77 -19 0 -66 39 -71 58 -7 25 14 62 43
78 32 18 30 18 62 -11z m-1095 -158 c20 -20 35 -48 39 -70 5 -32 1 -40 -28
-66 -44 -40 -73 -39 -116 4 -32 32 -35 40 -30 73 7 39 57 91 88 92 8 0 30 -15
47 -33z m-753 13 c3 -5 11 -7 19 -4 16 6 39 -42 31 -67 -7 -22 -54 -26 -73 -7
-18 18 -16 88 2 88 8 0 17 -4 21 -10z m528 -11 c29 -16 56 -50 57 -71 0 -20
-53 -78 -73 -78 -28 0 -67 26 -81 55 -13 27 -13 33 1 55 32 49 57 59 96 39z
m400 -48 c4 0 12 -12 19 -26 8 -19 8 -28 -2 -40 -15 -18 -46 -20 -53 -2 -4 9
-8 8 -16 -3 -10 -13 -12 -13 -21 0 -12 19 -13 37 -1 59 8 15 33 19 74 12z
m937 -78 c0 -29 -33 -63 -62 -63 -29 0 -42 9 -57 37 -15 28 9 80 42 92 28 11
77 -31 77 -66z m-266 41 c8 -21 7 -26 -4 -44 -7 -12 -12 -11 -29 5 -20 17 -20
19 -5 37 21 22 30 23 38 2z m-1541 -129 c20 -8 39 -19 42 -25 10 -17 -16 -83
-42 -105 -26 -23 -29 -35 -9 -35 8 0 28 -16 45 -35 37 -43 41 -93 11 -142 -32
-53 -108 -41 -134 22 -13 30 -13 42 -1 87 7 28 20 57 29 64 17 12 22 34 7 34
-16 0 -18 103 -3 128 17 26 11 25 55 7z m511 -36 c20 -28 6 -73 -23 -77 -31
-5 -88 24 -96 48 -16 51 29 87 77 63 15 -8 34 -23 42 -34z m223 -53 c-4 -29
-14 -48 -34 -63 -39 -32 -69 -29 -109 11 -46 46 -46 84 -1 118 48 37 58 38
106 5 42 -28 43 -31 38 -71z m1052 14 c27 -25 32 -36 27 -58 -10 -39 -54 -73
-86 -65 -71 16 -91 83 -39 127 39 34 57 33 98 -4z m-231 -63 c2 -10 -4 -20
-13 -23 -21 -9 -28 0 -20 26 8 24 28 22 33 -3z m-870 -92 c38 -32 47 -67 27
-105 -30 -59 -73 -64 -121 -16 -40 40 -44 75 -11 109 40 43 65 46 105 12z
m-209 -9 c49 -26 56 -41 31 -76 -26 -37 -74 -41 -108 -10 -29 27 -28 37 9 71
36 34 32 33 68 15z m648 -28 c33 -36 1 -93 -45 -81 -30 7 -38 45 -17 77 21 32
35 33 62 4z m659 -22 c40 -40 41 -52 11 -97 -17 -25 -31 -35 -55 -37 -37 -4
-57 9 -83 52 -16 27 -16 32 -3 58 13 25 60 56 88 58 4 0 23 -15 42 -34z m-213
-6 c55 -64 -28 -143 -96 -90 -33 26 -35 65 -5 97 30 33 70 30 101 -7z m-703 0
c0 -11 -4 -20 -10 -20 -5 0 -10 2 -10 4 0 2 -3 11 -6 20 -4 11 -1 16 10 16 9
0 16 -8 16 -20z m420 1 c0 -6 -4 -13 -10 -16 -5 -3 -10 1 -10 9 0 9 5 16 10
16 6 0 10 -4 10 -9z m-1276 -118 c4 -5 17 -8 28 -8 16 0 25 -11 36 -42 14 -38
14 -43 -2 -68 -26 -40 -46 -43 -73 -9 -12 16 -21 35 -18 43 3 7 0 20 -6 28 -9
10 -9 19 1 38 14 26 22 30 34 18z m224 -19 c25 -25 25 -53 0 -80 -29 -30 -43
-30 -62 -2 -21 29 -20 40 5 72 24 30 34 32 57 10z m463 -35 c33 -35 35 -48 14
-89 -25 -48 -78 -52 -123 -9 -28 25 -28 68 -1 103 29 37 72 35 110 -5z m-223
-11 c17 -17 15 -44 -5 -68 -22 -25 -39 -25 -53 -1 -14 28 -13 38 10 61 23 23
31 25 48 8z m1296 -37 c32 -33 31 -61 -4 -99 -27 -29 -51 -28 -89 4 -40 33
-42 74 -5 103 37 29 65 26 98 -8z m-904 4 c0 -8 -44 -23 -53 -18 -14 8 4 23
29 23 13 0 24 -2 24 -5z m682 -12 c10 -9 18 -22 18 -30 0 -21 -37 -52 -57 -48
-10 2 -21 4 -25 4 -4 1 -15 13 -25 27 -16 26 -16 27 6 45 29 23 59 24 83 2z
m-1510 -120 c47 -45 33 -104 -29 -122 -29 -9 -34 -6 -57 24 -34 44 -33 68 5
99 38 32 46 32 81 -1z m203 -23 c25 -28 23 -76 -4 -103 l-22 -22 -36 21 c-21
12 -44 31 -51 43 -13 19 -12 23 18 51 37 35 69 38 95 10z m224 -5 c50 -31 60
-59 34 -94 -26 -34 -56 -38 -93 -11 -36 26 -40 65 -9 104 11 14 22 26 25 26 2
0 22 -11 43 -25z m225 -6 c41 -32 49 -54 32 -86 -39 -76 -97 -81 -143 -12 -22
34 -24 43 -14 62 14 26 58 56 82 57 9 0 28 -9 43 -21z m169 0 c50 -23 59 -104
14 -129 -22 -12 -29 -12 -52 0 -64 34 -57 116 12 139 1 1 13 -4 26 -10z m915
-64 c17 -21 19 -32 11 -58 -17 -60 -77 -77 -118 -33 -33 35 -26 84 18 113 37
25 56 21 89 -22z m-225 9 c21 -19 26 -31 21 -47 -10 -34 -35 -57 -60 -57 -23
0 -64 42 -64 65 0 13 55 65 68 65 4 0 20 -12 35 -26z m-463 -34 c0 -5 -5 -10
-11 -10 -5 0 -7 5 -4 10 3 6 8 10 11 10 2 0 4 -4 4 -10z m-837 -90 c61 -48 32
-160 -42 -160 -34 0 -78 44 -87 88 -6 27 -2 36 26 62 37 35 67 38 103 10z
m213 -6 c35 -17 74 -72 74 -104 0 -10 -9 -22 -20 -25 -11 -3 -20 -10 -20 -14
0 -14 -58 -34 -82 -27 -40 10 -78 53 -78 89 0 36 12 55 50 81 30 20 34 20 76
0z m213 -10 c20 -10 39 -30 48 -51 14 -34 13 -37 -13 -75 -34 -49 -38 -51 -74
-43 -39 9 -80 52 -80 85 0 31 33 78 64 90 11 5 21 9 22 9 0 1 16 -6 33 -15z
m225 -34 c26 -25 24 -70 -3 -109 -19 -26 -27 -30 -49 -25 -73 17 -94 84 -42
135 33 33 59 33 94 -1z m644 -29 c49 -42 9 -140 -51 -123 -71 22 -89 75 -39
118 32 29 59 30 90 5z m219 -8 c19 -22 23 -35 19 -63 -10 -63 -69 -80 -118
-33 -36 35 -35 58 3 94 39 36 65 37 96 2z m-417 -48 c0 -7 -9 -20 -19 -29 -18
-17 -21 -17 -45 -1 -36 24 -33 64 4 77 16 6 60 -28 60 -47z m-1300 -91 c47
-42 49 -61 15 -102 -33 -40 -83 -41 -118 -3 -37 38 -39 84 -7 119 30 32 64 27
110 -14z m211 -3 c34 -35 37 -62 8 -102 -16 -23 -28 -29 -59 -29 -77 0 -106
73 -50 130 37 38 64 38 101 1z m231 -21 c38 -41 38 -41 21 -68 -10 -15 -24
-31 -31 -35 -7 -5 -17 -20 -23 -33 -5 -16 -13 -22 -21 -18 -7 4 -2 -6 10 -23
27 -38 27 -37 0 -91 -21 -44 -21 -45 -2 -80 19 -35 20 -39 23 -66 1 -14 29
-27 91 -43 32 -8 35 -12 38 -50 4 -52 -6 -58 -113 -68 -99 -10 -142 -9 -225 6
-102 17 -110 23 -110 66 0 36 3 39 40 51 22 7 57 9 79 6 44 -7 81 8 81 34 0 9
9 36 20 60 18 40 18 46 5 79 -17 41 -19 85 -5 99 10 10 -5 81 -21 99 -21 22 7
100 40 108 45 12 66 6 103 -33z m215 -8 c13 -15 23 -36 23 -47 0 -22 -43 -74
-63 -76 -32 -3 -54 5 -79 29 -37 34 -36 67 4 104 26 24 38 29 62 24 17 -3 41
-18 53 -34z m184 11 c36 -22 48 -72 25 -107 -32 -50 -92 -46 -122 9 -17 32
-18 38 -4 63 13 21 51 51 68 52 2 0 17 -8 33 -17z m675 -80 c9 -32 -24 -77
-59 -81 -31 -4 -77 36 -77 66 0 22 37 58 65 64 28 6 64 -19 71 -49z m186 30
c15 -15 28 -37 28 -49 0 -29 -37 -74 -62 -74 -32 0 -78 38 -78 65 0 32 43 78
79 84 3 1 18 -11 33 -26z m-440 -28 c0 -5 -5 -11 -11 -13 -6 -2 -11 4 -11 13
0 9 5 15 11 13 6 -2 11 -8 11 -13z m224 -189 c26 -22 27 -25 15 -54 -15 -36
-38 -46 -74 -33 -45 17 -47 83 -4 101 32 13 33 12 63 -14z m215 -8 c24 -30 24
-49 -1 -76 -26 -28 -60 -28 -88 -2 -26 24 -28 47 -6 78 21 30 69 30 95 0z
m3224 -18 c3 -5 1 -10 -4 -11 -44 -4 -65 -1 -69 9 -5 15 64 17 73 2z m-5 -70
c0 -13 -30 -13 -50 0 -11 7 -7 10 18 10 17 0 32 -4 32 -10z m17 -44 c4 -3 -1
-6 -10 -6 -9 0 -17 -4 -17 -10 0 -5 9 -10 19 -10 23 0 36 -16 21 -25 -8 -5 -8
-11 0 -20 16 -19 -18 -25 -55 -9 -16 7 -24 13 -17 14 18 0 15 18 -6 24 -9 3
-23 15 -30 27 -12 19 -11 20 7 14 12 -4 21 -2 21 4 0 11 56 9 67 -3z m1131
-34 c3 -30 3 -30 -55 -36 -32 -4 -80 -11 -106 -17 -27 -6 -51 -8 -55 -4 -9 9
38 44 59 45 9 0 24 11 33 24 10 16 27 26 48 28 52 5 73 -5 76 -40z m584 -19
c-10 -4 -10 -8 -1 -19 21 -26 4 -33 -36 -14 -32 14 -35 19 -17 19 12 1 22 6
22 11 0 6 10 10 23 9 12 0 16 -3 9 -6z m-5167 -23 c18 -20 18 -21 -1 -35 -25
-19 -59 -19 -78 0 -26 26 -6 50 45 54 9 0 24 -8 34 -19z m198 6 c23 -17 22
-43 -2 -56 -28 -15 -46 -12 -72 9 l-24 19 20 21 c23 23 53 26 78 7z m2525 -92
c12 -4 22 -14 22 -24 0 -14 -13 -18 -82 -23 -46 -4 -131 -7 -190 -7 -59 0
-141 -5 -184 -11 -83 -11 -144 -6 -144 14 1 40 12 42 257 47 131 3 252 7 268
8 17 1 40 -1 53 -4z m795 -248 c7 -17 -1 -26 -24 -26 -21 0 -33 15 -24 30 9
15 42 12 48 -4z m-435 -291 c6 -3 12 -11 12 -18 0 -11 -25 -16 -102 -20 -57
-4 -146 -11 -198 -17 -109 -11 -327 -13 -316 -3 31 31 194 64 309 62 54 -1
100 1 103 4 5 5 171 -2 192 -8z m158 0 c12 -12 13 -16 2 -19 -29 -9 -90 -15
-104 -9 -22 8 -6 23 26 23 16 0 32 5 35 10 9 14 24 12 41 -5z m-5156 -35 c0
-5 -7 -10 -16 -10 -8 0 -12 5 -9 10 3 6 10 10 16 10 5 0 9 -4 9 -10z m6720
-66 c0 -19 -4 -34 -10 -34 -5 0 -10 8 -10 18 0 9 -3 27 -6 40 -5 18 -3 21 10
16 10 -4 16 -18 16 -40z m-5066 -639 c-6 -16 -44 -21 -44 -7 0 14 12 22 31 22
12 0 16 -5 13 -15z m-57 -10 c-5 -13 -33 -19 -53 -11 -8 3 -13 10 -9 16 8 12
66 8 62 -5z m-348 -6 c24 -8 31 -16 26 -28 -3 -9 -14 -71 -23 -138 l-16 -123
-28 0 c-16 0 -28 6 -28 13 0 9 -2 9 -8 0 -4 -6 -8 44 -9 110 -1 67 -4 131 -5
142 -2 14 5 21 27 26 17 4 30 7 31 8 1 0 15 -4 33 -10z m236 -15 c9 -14 14
-32 11 -40 -3 -8 6 -33 20 -56 16 -25 22 -43 16 -47 -6 -3 -14 -19 -17 -34 -5
-17 -22 -37 -44 -51 -73 -46 -70 -51 -64 102 4 83 10 140 17 144 21 15 44 8
61 -18z m3970 1 c54 -26 71 -95 38 -154 -11 -19 -26 -31 -39 -31 -12 0 -34 -3
-50 -6 -25 -5 -32 -1 -48 27 -12 21 -19 51 -19 87 0 45 4 58 22 74 28 22 53
23 96 3z m-241 -30 c22 -34 22 -78 -1 -71 -10 3 -36 10 -58 15 -64 17 -69 25
-30 45 19 11 35 23 35 28 0 18 39 6 54 -17z m698 -122 c14 -27 28 -60 32 -75
3 -15 17 -38 31 -52 14 -14 25 -29 25 -33 1 -22 53 -65 125 -103 44 -24 86
-50 93 -58 14 -18 16 -114 3 -140 -11 -20 -34 -229 -37 -322 -2 -91 -2 -93
-17 -87 -8 3 -20 1 -28 -4 -11 -7 -9 -9 9 -9 52 0 16 -27 -73 -54 -33 -10 -73
-24 -90 -31 -16 -7 -42 -17 -57 -23 -23 -10 -27 -16 -25 -45 3 -38 55 -126 75
-127 7 0 17 -10 23 -23 6 -13 27 -32 47 -42 20 -11 51 -29 67 -41 17 -12 40
-25 53 -29 12 -3 22 -10 22 -14 0 -11 47 -31 75 -31 13 0 25 -4 27 -10 2 -5
38 -9 83 -9 44 1 135 2 202 3 113 1 122 3 127 21 5 20 5 20 20 0 9 -11 16 -15
17 -10 0 6 7 -10 14 -35 12 -41 13 -42 14 -14 1 16 7 38 14 48 12 17 14 16 31
-9 10 -15 15 -29 13 -32 -3 -2 -1 -18 3 -34 5 -16 5 -31 0 -34 -4 -2 -13 -26
-20 -52 -8 -27 -14 -50 -15 -53 -1 -3 -5 -23 -9 -45 -4 -22 -10 -47 -13 -55
-8 -21 -11 -37 -18 -95 -7 -57 -34 -115 -52 -115 -7 0 -13 -5 -13 -10 0 -6 6
-9 12 -8 12 3 13 -1 10 -35 -1 -8 -16 -14 -37 -15 -48 -2 -60 -11 -38 -27 17
-13 17 -15 0 -64 -10 -28 -15 -55 -12 -60 3 -6 1 -12 -5 -16 -6 -4 -10 5 -10
19 0 16 -6 26 -15 26 -8 0 -15 5 -15 10 0 6 6 10 14 10 18 0 25 20 19 53 -7
34 -14 38 -51 31 -22 -5 -28 -10 -25 -24 3 -10 0 -21 -7 -25 -19 -12 -57 4
-63 26 -5 18 -10 20 -37 14 -19 -4 -36 -2 -46 6 -21 18 -42 -4 -24 -26 10 -12
10 -15 -4 -15 -9 0 -21 9 -28 20 -7 11 -23 20 -36 20 -15 0 -26 -7 -29 -20 -4
-13 -14 -20 -32 -21 -15 0 -20 -3 -11 -6 8 -3 26 -17 40 -30 17 -18 25 -21 28
-11 11 40 12 42 25 29 9 -9 9 -14 -3 -21 -12 -8 -11 -10 6 -10 12 0 27 7 34
15 11 13 16 13 48 0 19 -9 43 -13 53 -10 12 4 21 -2 31 -22 10 -21 24 -30 53
-37 66 -14 69 -16 58 -27 -13 -13 -89 -7 -86 7 1 7 -8 9 -23 6 -22 -4 -23 -6
-8 -17 25 -18 11 -42 -30 -49 -20 -4 -36 -12 -36 -18 0 -6 -9 -8 -20 -5 -11 3
-20 2 -20 -2 0 -14 -46 -29 -60 -21 -8 5 -21 5 -29 1 -28 -13 -114 -5 -126 13
-16 21 -105 23 -105 2 0 -9 7 -12 20 -9 21 6 45 -9 60 -37 8 -14 0 -16 -63
-13 -40 1 -83 5 -97 9 -14 3 -22 2 -18 -2 5 -4 -1 -14 -13 -22 -15 -10 -24
-11 -32 -3 -14 14 -30 15 -22 1 10 -16 -21 -12 -35 5 -6 8 -9 23 -5 35 5 16 2
20 -14 20 -22 0 -28 -14 -10 -26 7 -4 7 -10 1 -16 -7 -7 -20 -4 -40 10 -35 25
-49 18 -22 -11 11 -11 18 -22 16 -25 -8 -7 -55 32 -56 46 0 6 -4 12 -10 12
-14 0 -50 -37 -51 -52 0 -7 -5 -1 -10 14 -6 16 -16 25 -24 22 -8 -3 -16 4 -20
16 -4 13 -12 19 -21 16 -8 -3 -14 1 -14 10 0 13 -8 14 -40 9 -27 -5 -40 -3
-40 4 0 7 7 14 15 17 17 7 20 30 4 39 -19 12 -79 -5 -79 -22 0 -14 -3 -14 -19
3 -11 11 -15 23 -10 30 5 6 5 14 1 18 -4 4 0 6 8 4 8 -2 14 4 15 12 0 18 65
28 65 10 0 -6 -4 -8 -10 -5 -5 3 -17 2 -27 -3 -14 -9 -14 -10 6 -17 12 -4 25
-4 28 -1 3 3 18 -2 34 -11 26 -16 30 -16 46 -1 15 14 26 15 66 7 26 -6 47 -14
47 -19 0 -4 -14 -14 -31 -23 -22 -10 -27 -17 -18 -23 7 -4 14 -3 16 3 2 6 13
9 23 6 11 -3 20 -1 20 5 0 17 54 39 88 37 18 -1 32 2 32 7 0 4 -4 8 -10 8 -5
0 -10 7 -10 16 0 15 9 16 72 11 39 -3 76 -11 82 -17 5 -5 19 -10 29 -10 14 0
18 5 14 20 -4 15 0 20 14 20 10 0 19 -6 19 -13 0 -15 55 -45 90 -49 18 -2 35
7 55 29 17 17 39 32 50 34 28 6 26 35 -2 32 -16 -2 -23 3 -23 14 0 8 -8 21
-17 28 -15 11 -15 15 -4 29 11 14 11 16 -3 16 -9 0 -16 -4 -16 -10 0 -5 -5
-10 -11 -10 -6 0 -8 7 -5 17 6 15 5 16 -11 1 -23 -20 -71 -29 -76 -14 -2 6 -8
8 -12 4 -4 -4 -2 -14 5 -23 17 -21 -3 -45 -33 -38 -51 11 -53 14 -18 32 22 12
30 21 22 25 -7 4 -18 5 -26 2 -8 -3 -14 0 -12 6 4 22 -30 20 -36 -1 -6 -26
-36 -39 -47 -21 -5 8 -14 10 -26 5 -11 -5 -45 -9 -76 -10 -54 0 -56 1 -41 17
15 16 15 18 0 18 -8 0 -17 4 -19 8 -1 4 -28 6 -58 3 -40 -3 -50 -6 -35 -12 19
-7 19 -8 -2 -8 -13 -1 -27 8 -33 19 -8 15 -21 20 -50 20 -21 0 -42 5 -46 11
-4 8 -9 8 -17 0 -8 -8 -5 -15 9 -26 17 -13 17 -14 2 -15 -10 0 -18 4 -18 10 0
5 -11 12 -25 16 -14 3 -25 11 -25 16 0 6 -7 7 -16 4 -16 -6 -64 20 -64 36 0 5
-7 16 -16 25 -14 14 -13 17 5 34 11 11 34 21 50 22 16 2 36 8 43 14 16 12 48
26 65 27 14 1 42 36 43 53 0 6 -16 17 -35 23 -19 6 -35 16 -35 21 0 12 17 12
22 -1 5 -16 53 14 56 36 2 11 -4 27 -13 34 -19 16 -19 30 0 30 8 0 15 9 15 20
0 13 -7 20 -20 20 -13 0 -20 -7 -20 -20 0 -11 -4 -20 -10 -20 -5 0 -10 6 -10
13 0 19 -54 39 -85 31 -26 -6 -27 -6 -20 25 5 25 2 38 -12 54 -18 20 -24 43
-25 87 0 26 45 185 55 191 5 4 5 9 -2 13 -6 4 -11 21 -11 37 0 29 -2 31 -37
28 -21 -2 -63 4 -93 13 -30 9 -81 20 -112 23 -32 4 -58 10 -58 14 0 4 -12 7
-27 6 -18 0 -28 5 -28 15 0 8 -4 20 -8 27 -4 6 -4 18 -1 26 3 8 0 18 -5 22 -6
3 -9 11 -5 16 3 6 -4 7 -20 3 -22 -5 -26 -3 -26 16 0 13 -8 24 -20 27 -11 3
-20 12 -20 19 0 8 -7 14 -15 14 -9 0 -20 11 -25 24 -10 27 -18 28 -242 29 -97
1 -109 -1 -142 -24 -20 -13 -36 -31 -37 -39 0 -8 -2 -33 -5 -55 -13 -118 -4
-249 21 -309 17 -40 11 -55 -24 -56 -11 0 -11 -3 -1 -15 22 -27 8 -32 -80 -26
-14 1 -20 8 -20 26 0 16 -6 25 -16 25 -12 0 -15 -6 -11 -21 3 -12 2 -32 -4
-45 -7 -19 -5 -26 6 -30 28 -11 2 -26 -34 -20 -26 4 -44 1 -61 -11 -17 -12
-25 -13 -28 -5 -2 7 -21 12 -43 12 -21 0 -39 5 -39 10 0 6 -10 10 -22 10 -12
0 -18 3 -15 7 4 4 33 6 65 6 44 0 48 1 15 4 -34 3 -43 8 -43 23 0 11 -9 20
-22 23 l-23 4 23 8 c38 13 25 24 -37 31 -63 7 -79 23 -58 59 7 14 5 21 -9 32
-16 12 -17 15 -4 23 8 5 29 10 46 10 23 0 36 7 48 25 18 28 4 34 -20 10 -17
-16 -51 -20 -71 -7 -18 12 25 102 49 102 12 0 15 5 11 17 -4 10 -8 12 -10 6
-3 -7 -11 -5 -24 8 -10 10 -30 19 -43 19 -13 0 -29 7 -36 15 -10 12 -10 15 4
15 9 0 16 5 16 11 0 8 13 9 40 5 52 -8 54 12 3 36 -29 14 -39 15 -45 5 -6 -9
-12 -8 -22 6 -9 11 -27 17 -56 17 -24 0 -51 7 -59 14 -11 10 -21 12 -31 5 -13
-8 -13 -10 0 -19 11 -7 4 -10 -27 -10 -45 0 -53 9 -27 31 8 7 22 26 30 41 15
29 15 30 -15 41 -17 6 -31 17 -31 24 0 26 -48 14 -67 -17 -9 -16 -23 -30 -30
-30 -18 0 -16 19 2 26 8 4 15 17 15 30 0 18 -5 24 -21 24 -12 0 -27 -7 -33
-16 -10 -13 -16 -13 -41 -3 l-30 12 25 8 c15 5 -21 7 -90 6 -106 -2 -118 0
-144 21 -27 21 -30 21 -48 6 -24 -22 -24 0 0 24 14 14 32 18 78 17 32 -1 44 0
27 2 -18 2 -33 9 -33 14 0 6 5 7 11 3 7 -4 9 0 5 13 -7 21 24 56 59 67 44 13
60 152 26 222 -28 57 -95 124 -125 124 -14 0 -27 4 -30 9 -3 4 79 11 182 14
103 4 265 11 361 17 181 11 225 6 316 -35 66 -30 108 -45 129 -45 11 0 30 -7
40 -15 11 -8 28 -15 38 -15 10 0 18 -4 18 -10 0 -5 8 -10 18 -10 9 -1 35 -11
57 -24 32 -18 40 -29 40 -52 0 -16 -4 -32 -8 -35 -11 -8 25 -78 41 -79 6 0 12
-9 12 -20 0 -10 7 -23 16 -28 8 -5 16 -16 18 -26 1 -9 18 -26 37 -38 19 -11
37 -26 41 -33 4 -7 23 -16 43 -19 19 -4 38 -13 43 -22 4 -8 35 -24 68 -36 71
-25 91 -41 99 -79 7 -29 36 -54 49 -41 11 10 134 2 193 -13 45 -12 104 -13
138 -4 19 5 100 -13 123 -28 24 -15 81 -10 92 8 3 5 30 11 60 13 94 8 140 18
140 31 0 7 9 15 20 18 13 3 20 14 20 31 0 17 4 24 13 20 8 -3 20 2 27 11 10
12 10 15 -5 15 -13 0 -9 7 14 31 17 17 31 40 31 51 0 23 -37 57 -62 58 -10 0
-18 4 -18 9 0 5 -10 11 -22 14 -13 3 -51 16 -86 28 -51 19 -61 26 -56 41 5 15
-1 18 -38 18 -24 0 -48 4 -54 10 -6 6 -22 7 -39 2 -17 -5 -41 -5 -55 -1 -14 4
-19 7 -12 8 8 1 12 7 9 14 -4 11 18 48 53 90 8 10 38 29 67 42 28 14 55 30 59
37 5 8 9 7 13 -5 6 -16 8 -16 28 -2 12 9 25 31 29 50 3 20 10 38 15 41 5 3 7
10 4 15 -4 5 15 18 42 30 66 28 140 87 152 121 15 44 44 36 73 -19z m-4087
-100 c3 -20 15 -55 25 -77 50 -114 58 -141 48 -153 -28 -34 -104 9 -143 81
-16 29 -17 37 -6 50 8 9 19 16 26 16 10 0 11 6 2 29 -8 21 -7 36 2 60 18 42
37 39 46 -6z m-4898 -235 c-2 -13 -4 -5 -4 17 -1 22 1 32 4 23 2 -10 2 -28 0
-40z m10405 -20 c-18 -18 -15 -38 6 -38 15 -1 15 -2 -2 -12 -16 -9 -23 -7 -39
13 -18 22 -18 24 -1 36 24 17 53 18 36 1z m-9117 -78 c3 -5 -3 -10 -15 -10
-12 0 -18 5 -15 10 3 6 10 10 15 10 5 0 12 -4 15 -10z m693 -151 c4 -24 -38
-32 -60 -12 -24 21 -13 35 25 31 20 -2 33 -9 35 -19z m4242 -159 c0 -5 -4 -10
-10 -10 -5 0 -10 5 -10 10 0 6 5 10 10 10 6 0 10 -4 10 -10z m596 -29 c-3 -5
-15 -7 -26 -4 -28 7 -25 13 6 13 14 0 23 -4 20 -9z m-396 -21 c0 -5 -4 -10
-10 -10 -5 0 -10 5 -10 10 0 6 5 10 10 10 6 0 10 -4 10 -10z m300 -25 c0 -8
-6 -15 -14 -15 -17 0 -28 14 -19 24 12 12 33 6 33 -9z m80 5 c0 -5 -7 -10 -16
-10 -8 0 -12 5 -9 10 3 6 10 10 16 10 5 0 9 -4 9 -10z m960 0 c0 -5 -4 -10
-10 -10 -5 0 -10 5 -10 10 0 6 5 10 10 10 6 0 10 -4 10 -10z m-772 -98 c2 -8
-8 -12 -27 -12 -33 0 -42 16 -13 23 23 6 35 3 40 -11z m801 -58 c53 -18 81
-32 80 -42 -2 -15 14 -52 22 -52 5 0 9 -22 9 -50 0 -28 -5 -50 -10 -50 -7 0
-7 -7 0 -20 7 -13 7 -26 2 -37 -5 -9 -7 -24 -4 -35 2 -11 0 -29 -5 -41 -19
-43 -32 -90 -27 -98 3 -5 0 -9 -5 -9 -6 0 -11 -7 -11 -15 0 -8 -9 -15 -20 -15
-18 0 -20 -5 -18 -37 3 -33 0 -38 -19 -41 -27 -4 -30 -20 -5 -38 16 -13 16
-13 0 -14 -10 0 -18 5 -18 10 0 6 -5 10 -10 10 -6 0 -24 10 -40 22 -30 22 -41
63 -19 70 17 6 -1 37 -20 33 -24 -4 -51 19 -60 52 -6 24 -12 28 -39 25 -18 -2
-32 1 -32 7 0 6 8 11 18 11 10 0 23 5 30 12 9 9 12 9 12 -2 0 -7 3 -10 6 -7 4
3 14 2 24 -3 24 -13 30 -3 19 28 -12 37 -17 217 -7 272 14 77 42 88 147 54z
m1922 -40 c6 -8 10 -16 7 -19 -7 -8 -46 7 -51 19 -7 17 29 17 44 0z m-2751
-24 c0 -5 -18 -10 -40 -10 -22 0 -40 5 -40 10 0 6 18 10 40 10 22 0 40 -4 40
-10z m2905 -46 c10 -10 14 -25 11 -38 -3 -12 -6 -24 -6 -28 0 -5 -7 -8 -15 -8
-18 0 -35 31 -35 64 0 30 20 34 45 10z m-3110 -54 c3 -5 1 -10 -4 -10 -6 0
-11 5 -11 10 0 6 2 10 4 10 3 0 8 -4 11 -10z m3515 -63 c0 -7 -7 -22 -15 -33
-14 -18 -14 -18 -15 7 0 14 3 29 7 32 11 11 23 8 23 -6z m-3560 -11 c0 -3 -4
-8 -10 -11 -5 -3 -10 -1 -10 4 0 6 5 11 10 11 6 0 10 -2 10 -4z m350 -22 c0
-9 -11 -14 -30 -14 -21 0 -30 5 -30 16 0 11 6 14 20 9 12 -4 20 -2 20 5 0 6 5
8 10 5 6 -3 10 -13 10 -21z m-5860 -84 c0 -5 -5 -10 -11 -10 -5 0 -7 5 -4 10
3 6 8 10 11 10 2 0 4 -4 4 -10z m9036 -46 c-8 -29 -26 -22 -26 10 0 29 23 55
28 31 2 -9 1 -28 -2 -41z m-2776 27 c0 -6 -4 -13 -10 -16 -5 -3 -10 1 -10 9 0
9 5 16 10 16 6 0 10 -4 10 -9z m50 -6 c0 -8 -7 -15 -15 -15 -16 0 -20 12 -8
23 11 12 23 8 23 -8z m-6360 -27 c0 -13 -23 -5 -28 10 -2 7 2 10 12 6 9 -3 16
-11 16 -16z m6403 -2 c29 -22 20 -36 -13 -19 -17 8 -28 19 -25 24 8 12 17 11
38 -5z m342 -57 c10 -14 1 -21 -19 -13 -9 3 -13 10 -10 15 7 12 21 11 29 -2z
m-3 -53 c34 -8 40 -36 11 -59 -18 -14 -21 -25 -17 -50 l6 -32 -28 39 c-16 23
-23 41 -17 43 8 3 7 13 -2 30 -15 29 -12 44 8 38 7 -2 24 -6 39 -9z m512 -4
c2 -4 -9 -9 -25 -10 -16 -1 -29 2 -29 8 0 12 47 14 54 2z m-736 -23 c7 -12 11
-23 9 -25 -6 -6 -37 25 -37 37 0 16 15 10 28 -12z m62 -82 c17 -21 24 -23 69
-17 52 6 60 0 42 -28 -7 -11 -12 -11 -28 -1 -28 17 -53 6 -46 -20 6 -23 -6
-27 -26 -8 -10 10 -16 7 -32 -12 -19 -23 -105 -54 -121 -44 -12 6 -10 41 3 48
6 4 8 13 5 21 -3 8 0 11 8 8 8 -3 13 -13 12 -22 -1 -12 8 -18 27 -20 42 -5 70
31 64 81 -6 43 -2 46 23 14z m2457 -43 c46 -43 79 -56 103 -42 15 10 22 10 32
0 6 -6 22 -12 34 -12 17 0 21 -4 17 -20 -3 -11 -14 -20 -24 -20 -10 0 -21 -5
-25 -11 -4 -8 0 -9 15 -4 17 5 21 2 21 -14 0 -11 -8 -25 -17 -30 -15 -9 -15
-12 -4 -20 19 -12 5 -67 -22 -86 -18 -13 -19 -17 -8 -25 12 -7 12 -11 2 -24
-7 -8 -10 -21 -6 -28 3 -7 -2 -3 -11 10 -22 29 -30 28 -28 -5 2 -42 3 -44 17
-41 6 2 13 -1 15 -6 1 -5 -9 -10 -23 -12 -16 -2 -25 2 -25 12 0 8 -5 14 -11
14 -6 0 -9 -7 -6 -15 4 -8 1 -18 -6 -22 -17 -10 -47 -11 -47 -1 0 4 6 8 14 8
20 0 28 14 20 35 -4 9 -13 14 -22 10 -8 -3 -19 0 -24 7 -6 10 -8 10 -8 1 0 -9
-7 -10 -26 -3 -37 14 -52 12 -57 -7 -3 -12 -5 -8 -6 9 0 15 6 33 14 42 20 19
19 23 -6 29 -18 5 -19 9 -9 27 15 27 18 69 9 96 -4 13 -1 39 7 63 8 23 16 50
17 61 4 24 26 50 43 50 7 0 26 -12 41 -26z m-2317 -4 c0 -5 -4 -10 -10 -10 -5
0 -10 5 -10 10 0 6 5 10 10 10 6 0 10 -4 10 -10z m-863 -15 c0 -16 -24 -20
-54 -8 -14 6 -11 9 17 14 19 4 35 7 36 8 0 0 1 -6 1 -14z m1176 8 c-13 -2 -23
-12 -23 -21 0 -13 -3 -13 -12 -4 -16 16 5 32 37 30 17 -1 17 -1 -2 -5z m-8066
-169 c-3 -3 -12 -4 -19 -1 -8 3 -5 6 6 6 11 1 17 -2 13 -5z m8103 -14 c0 -5
-5 -10 -11 -10 -5 0 -7 5 -4 10 3 6 8 10 11 10 2 0 4 -4 4 -10z m-74 -22 c-18
-10 -39 -2 -31 12 3 4 15 6 26 3 19 -5 19 -7 5 -15z m212 -15 c-2 -10 -10 -18
-18 -18 -8 0 -16 8 -18 18 -2 12 3 17 18 17 15 0 20 -5 18 -17z m-201 -23 c6
-21 28 -27 38 -10 3 6 1 10 -6 10 -22 0 0 13 26 16 20 2 25 -2 25 -21 0 -21
-5 -23 -52 -27 -42 -2 -52 0 -56 14 -2 10 -11 18 -19 18 -8 0 -11 5 -8 10 11
18 47 11 52 -10z m130 4 c-3 -3 -12 -4 -19 -1 -8 3 -5 6 6 6 11 1 17 -2 13 -5z
m-190 -36 c-3 -8 -6 -5 -6 6 -1 11 2 17 5 13 3 -3 4 -12 1 -19z m300 0 c-3 -8
-6 -5 -6 6 -1 11 2 17 5 13 3 -3 4 -12 1 -19z m1263 -87 c0 -14 -18 -23 -31
-15 -8 4 -7 9 2 15 18 11 29 11 29 0z m90 -32 c0 -5 -4 -9 -10 -9 -5 0 -10 7
-10 16 0 8 5 12 10 9 6 -3 10 -10 10 -16z m-936 -4 c3 -8 1 -15 -4 -15 -6 0
-10 7 -10 15 0 8 2 15 4 15 2 0 6 -7 10 -15z m176 -11 c0 -2 -12 -4 -27 -4
-21 0 -24 3 -14 9 13 8 41 5 41 -5z m-149 -49 c0 -5 -9 -11 -21 -13 -11 -2
-20 -8 -20 -13 0 -5 -5 -9 -10 -9 -6 0 -3 11 6 25 16 25 45 31 45 10z m319 11
c0 -8 -51 -13 -56 -5 -3 5 9 9 25 9 17 0 31 -2 31 -4z m55 -5 c3 -5 1 -12 -5
-16 -5 -3 -10 1 -10 9 0 18 6 21 15 7z m-665 -99 c0 -15 -2 -15 -10 -2 -13 20
-13 33 0 25 6 -3 10 -14 10 -23z m-617 11 c-7 -2 -19 -2 -25 0 -7 3 -2 5 12 5
14 0 19 -2 13 -5z m597 -27 c0 -3 -4 -8 -10 -11 -5 -3 -10 -1 -10 4 0 6 5 11
10 11 6 0 10 -2 10 -4z m65 -36 c3 -5 1 -10 -4 -10 -6 0 -11 5 -11 10 0 6 2
10 4 10 3 0 8 -4 11 -10z m-8428 -2462 c-3 -8 -6 -5 -6 6 -1 11 2 17 5 13 3
-3 4 -12 1 -19z m246 -708 c-5 -17 -6 -17 -22 -2 -10 10 -13 20 -7 24 16 11
34 -2 29 -22z m-253 -245 c0 -8 -2 -15 -4 -15 -2 0 -6 7 -10 15 -3 8 -1 15 4
15 6 0 10 -7 10 -15z m-40 -25 c0 -31 -16 -41 -26 -15 -8 19 2 45 16 45 5 0
10 -13 10 -30z m40 -25 c0 -8 -4 -15 -10 -15 -5 0 -7 7 -4 15 4 8 8 15 10 15
2 0 4 -7 4 -15z m0 -34 c0 -9 -34 -21 -62 -21 -10 0 -18 7 -18 15 0 11 11 15
40 15 22 0 40 -4 40 -9z m-180 -670 c15 -28 13 -31 -20 -31 -16 0 -30 3 -30 6
0 12 21 44 30 44 5 0 14 -9 20 -19z m200 -69 c-12 -2 -27 1 -33 7 -8 8 -8 11
1 11 7 0 12 8 12 18 1 14 4 13 22 -8 l20 -25 -22 -3z m-180 -57 c0 -8 -4 -15
-10 -15 -5 0 -7 7 -4 15 4 8 8 15 10 15 2 0 4 -7 4 -15z m-400 -535 c0 -5 -5
-10 -11 -10 -5 0 -7 5 -4 10 3 6 8 10 11 10 2 0 4 -4 4 -10z"/>
<path d="M5312 13105 c0 -16 2 -22 5 -12 2 9 2 23 0 30 -3 6 -5 -1 -5 -18z"/>
<path d="M5386 12844 c-9 -20 -15 -39 -12 -41 2 -3 22 -9 43 -13 51 -12 70 5
57 52 -8 27 -15 33 -40 35 -26 2 -33 -3 -48 -33z"/>
<path d="M5162 12312 c-9 -13 -26 -28 -39 -33 -22 -8 -23 -11 -9 -24 8 -8 18
-15 21 -15 4 0 19 -9 34 -19 l28 -20 36 26 c20 14 37 29 37 33 0 4 -11 19 -25
34 -14 15 -25 31 -25 36 0 18 -43 5 -58 -18z"/>
<path d="M5143 12065 c-32 -33 -43 -53 -22 -39 6 3 26 -9 45 -27 l34 -33 29
34 29 35 -23 30 c-30 40 -53 40 -92 0z"/>
<path d="M7760 7189 c0 -5 5 -7 10 -4 6 3 10 8 10 11 0 2 -4 4 -10 4 -5 0 -10
-5 -10 -11z"/>
<path d="M7657 7154 c-8 -8 1 -24 14 -24 5 0 9 7 9 15 0 15 -12 20 -23 9z"/>
<path d="M8240 6954 c0 -8 5 -12 10 -9 6 4 8 11 5 16 -9 14 -15 11 -15 -7z"/>
<path d="M8320 6785 c0 -8 2 -15 4 -15 2 0 6 7 10 15 3 8 1 15 -4 15 -6 0 -10
-7 -10 -15z"/>
<path d="M8360 6760 c0 -21 4 -30 13 -27 6 2 12 14 12 27 0 13 -6 25 -12 28
-9 2 -13 -7 -13 -28z"/>
<path d="M8412 6758 c3 -7 13 -15 22 -16 12 -3 17 1 14 10 -3 7 -13 15 -22 16
-12 3 -17 -1 -14 -10z"/>
<path d="M8477 6723 c-13 -13 -7 -33 11 -32 10 0 12 3 5 6 -26 10 -12 22 30
26 l42 4 -41 1 c-22 1 -44 -1 -47 -5z"/>
<path d="M8400 6712 c0 -7 -16 -12 -40 -12 -29 0 -40 -4 -40 -15 0 -11 11 -15
39 -15 31 0 41 4 46 21 4 11 4 23 1 26 -3 4 -6 1 -6 -5z"/>
<path d="M8425 6450 c-4 -7 -3 -16 3 -22 14 -14 47 -6 47 12 0 18 -40 26 -50
10z"/>
<path d="M8546 6415 c-3 -8 -1 -15 4 -15 6 0 10 7 10 15 0 8 -2 15 -4 15 -2 0
-6 -7 -10 -15z"/>
<path d="M10990 6170 c0 -5 5 -10 10 -10 6 0 10 5 10 10 0 6 -4 10 -10 10 -5
0 -10 -4 -10 -10z"/>
<path d="M9870 6135 c0 -8 5 -15 10 -15 6 0 10 7 10 15 0 8 -4 15 -10 15 -5 0
-10 -7 -10 -15z"/>
<path d="M10190 6041 c0 -6 5 -13 10 -16 6 -3 10 1 10 9 0 9 -4 16 -10 16 -5
0 -10 -4 -10 -9z"/>
<path d="M9890 5996 c0 -2 7 -6 15 -10 8 -3 15 -1 15 4 0 6 -7 10 -15 10 -8 0
-15 -2 -15 -4z"/>
<path d="M10266 5973 c-12 -12 -5 -23 14 -23 11 0 20 4 20 9 0 11 -26 22 -34
14z"/>
<path d="M9708 5833 c6 -2 18 -2 25 0 6 3 1 5 -13 5 -14 0 -19 -2 -12 -5z"/>
<path d="M10720 5830 c0 -5 7 -10 16 -10 8 0 12 5 9 10 -3 6 -10 10 -16 10 -5
0 -9 -4 -9 -10z"/>
<path d="M10080 5776 c0 -22 4 -26 28 -25 16 1 20 3 10 6 -10 2 -18 11 -18 18
0 8 -4 17 -10 20 -6 4 -10 -5 -10 -19z"/>
<path d="M10480 5770 c0 -5 5 -10 11 -10 5 0 7 5 4 10 -3 6 -8 10 -11 10 -2 0
-4 -4 -4 -10z"/>
<path d="M10755 5740 c-4 -6 5 -10 20 -10 15 0 24 4 20 10 -3 6 -12 10 -20 10
-8 0 -17 -4 -20 -10z"/>
<path d="M10623 5653 c-28 -19 -29 -33 -3 -33 11 0 20 5 20 11 0 7 16 8 46 3
34 -5 45 -4 40 5 -4 6 -14 11 -22 11 -8 0 -14 5 -14 10 0 15 -42 11 -67 -7z"/>
<path d="M10268 5543 c7 -3 16 -2 19 1 4 3 -2 6 -13 5 -11 0 -14 -3 -6 -6z"/>
<path d="M9921 5474 c0 -11 3 -14 6 -6 3 7 2 16 -1 19 -3 4 -6 -2 -5 -13z"/>
<path d="M10155 5481 c-9 -16 9 -18 35 -5 l25 14 -27 0 c-15 0 -29 -4 -33 -9z"/>
<path d="M8850 6330 c0 -5 5 -10 11 -10 5 0 7 5 4 10 -3 6 -8 10 -11 10 -2 0
-4 -4 -4 -10z"/>
<path d="M8880 6330 c0 -5 5 -10 10 -10 6 0 10 5 10 10 0 6 -4 10 -10 10 -5 0
-10 -4 -10 -10z"/>
<path d="M9090 6220 c0 -5 5 -10 11 -10 5 0 7 5 4 10 -3 6 -8 10 -11 10 -2 0
-4 -4 -4 -10z"/>
<path d="M11460 5850 c0 -6 7 -10 15 -10 8 0 15 2 15 4 0 2 -7 6 -15 10 -8 3
-15 1 -15 -4z"/>
<path d="M10566 15984 c-19 -18 -21 -60 -4 -70 6 -4 36 -13 66 -20 53 -13 54
-12 47 9 -4 12 -9 34 -12 49 -3 15 -9 25 -14 22 -5 -2 -22 2 -38 11 -27 13
-31 13 -45 -1z"/>
<path d="M10691 15958 c1 -40 2 -41 9 -13 5 20 8 24 9 10 1 -16 3 -17 10 -6 7
11 10 9 13 -10 2 -13 11 -25 21 -27 35 -7 207 59 207 79 0 5 -60 9 -135 9
l-135 0 1 -42z"/>
<path d="M2633 14695 c0 -33 2 -45 4 -27 2 18 2 45 0 60 -2 15 -4 0 -4 -33z"/>
<path d="M10034 14286 c3 -12 3 -26 -1 -30 -4 -3 -8 -21 -9 -39 -1 -17 -4 -49
-7 -69 -6 -50 2 -58 60 -63 l51 -5 -13 67 c-7 38 -19 81 -25 98 -21 55 -68 90
-56 41z"/>
<path d="M2641 14284 c0 -11 3 -14 6 -6 3 7 2 16 -1 19 -3 4 -6 -2 -5 -13z"/>
<path d="M1147 14129 c7 -7 15 -10 18 -7 3 3 -2 9 -12 12 -14 6 -15 5 -6 -5z"/>
<path d="M1230 14076 c0 -2 8 -10 18 -17 15 -13 16 -12 3 4 -13 16 -21 21 -21
13z"/>
<path d="M3280 14064 c0 -8 5 -12 10 -9 6 3 10 10 10 16 0 5 -4 9 -10 9 -5 0
-10 -7 -10 -16z"/>
<path d="M10137 14046 c-4 -10 -1 -16 8 -16 8 0 15 -7 15 -16 0 -8 -4 -12 -10
-9 -6 4 -10 -5 -10 -19 0 -14 -4 -26 -10 -26 -21 0 -50 -41 -50 -70 0 -20 -5
-30 -15 -30 -19 0 -115 -92 -115 -111 0 -8 -7 -24 -15 -36 -11 -15 -13 -34 -9
-66 6 -41 10 -46 43 -55 55 -17 124 -24 225 -23 50 1 124 -4 164 -10 89 -14
92 -12 91 82 -1 36 2 75 5 87 11 32 -49 164 -99 220 -66 73 -204 135 -218 98z"/>
<path d="M1305 14020 c3 -5 11 -10 16 -10 6 0 7 5 4 10 -3 6 -11 10 -16 10 -6
0 -7 -4 -4 -10z"/>
<path d="M1338 13993 c6 -2 18 -2 25 0 6 3 1 5 -13 5 -14 0 -19 -2 -12 -5z"/>
<path d="M10100 13996 c0 -2 7 -6 15 -10 8 -3 15 -1 15 4 0 6 -7 10 -15 10 -8
0 -15 -2 -15 -4z"/>
<path d="M2632 13940 c0 -14 2 -19 5 -12 2 6 2 18 0 25 -3 6 -5 1 -5 -13z"/>
<path d="M2476 13903 c-15 -79 -17 -114 -7 -130 6 -10 11 -13 11 -7 0 7 11 15
24 18 14 3 27 14 31 25 3 10 14 26 25 36 29 27 25 39 -22 61 -24 10 -46 20
-50 22 -3 2 -9 -10 -12 -25z"/>
<path d="M1512 13885 c16 -17 81 -55 86 -50 3 3 0 5 -6 5 -7 0 -12 6 -12 13 0
8 -16 19 -36 25 -20 6 -34 9 -32 7z"/>
<path d="M1630 13812 c0 -5 11 -15 25 -22 14 -7 25 -17 25 -22 0 -4 5 -8 12
-8 6 0 26 -11 44 -25 18 -14 39 -25 47 -25 8 0 17 -7 20 -14 7 -17 66 -50 74
-42 9 9 -9 27 -22 22 -7 -2 -16 1 -19 9 -3 8 -19 21 -37 31 -18 9 -41 25 -52
35 -12 10 -26 19 -33 19 -7 0 -19 6 -26 13 -20 20 -58 39 -58 29z"/>
<path d="M1440 13780 c0 -5 5 -10 11 -10 5 0 7 5 4 10 -3 6 -8 10 -11 10 -2 0
-4 -4 -4 -10z"/>
<path d="M1516 13707 c3 -10 9 -15 12 -12 3 3 0 11 -7 18 -10 9 -11 8 -5 -6z"/>
<path d="M1549 13707 c6 -8 8 -17 4 -20 -3 -4 6 -7 22 -7 l28 0 -26 20 c-29
23 -45 27 -28 7z"/>
<path d="M1477 13693 c-7 -11 10 -40 18 -31 4 4 3 14 -3 24 -5 9 -12 12 -15 7z"/>
<path d="M9490 13681 c0 -10 -6 -34 -14 -52 -20 -49 -29 -126 -16 -134 5 -3
10 -16 11 -28 0 -12 9 14 19 58 21 88 26 175 10 175 -5 0 -10 -8 -10 -19z"/>
<path d="M1428 13673 c7 -3 16 -2 19 1 4 3 -2 6 -13 5 -11 0 -14 -3 -6 -6z"/>
<path d="M1578 13662 c-29 -2 -37 -8 -42 -28 -4 -14 -11 -22 -17 -19 -5 4 -7
16 -3 28 6 19 5 20 -9 8 -9 -7 -15 -23 -14 -34 2 -18 -4 -23 -28 -25 -22 -2
-26 0 -15 7 12 9 12 11 -3 16 -9 4 -23 0 -32 -9 -22 -21 -36 -20 -42 4 -6 24
-30 26 -61 4 -15 -10 -22 -11 -22 -3 0 8 -20 9 -72 4 -92 -9 -177 -9 -298 -2
-59 3 -100 1 -107 -5 -9 -8 -13 -7 -13 3 0 24 -20 -13 -20 -37 0 -12 -6 -27
-13 -33 -11 -9 -11 -24 5 -87 24 -95 21 -136 -9 -149 -14 -6 -21 -16 -18 -25
2 -8 7 -48 11 -87 5 -60 3 -78 -11 -99 -13 -21 -19 -24 -26 -13 -7 11 -9 9 -9
-7 0 -11 5 -25 11 -31 14 -14 16 -140 2 -154 -7 -7 -13 11 -17 63 -12 124 -26
157 -21 48 19 -395 19 -386 1 -371 -9 7 -16 19 -16 26 0 7 -9 15 -20 18 -12 3
-20 14 -20 26 0 22 10 27 25 12 6 -6 11 16 12 60 2 38 -1 69 -6 69 -5 0 -12
28 -16 62 -7 58 -8 60 -21 37 -7 -13 -13 -41 -14 -63 0 -31 -3 -37 -16 -32
-15 6 -16 0 -11 -46 4 -29 9 -66 12 -83 7 -41 35 -285 42 -367 4 -51 10 -68
21 -68 12 0 13 10 8 51 -7 48 -6 50 13 44 16 -5 20 -3 15 9 -9 24 57 21 100
-5 33 -19 34 -23 29 -62 -3 -23 -5 -55 -4 -72 5 -80 2 -128 -8 -138 -6 -6 -24
-10 -41 -10 -16 0 -30 -5 -30 -11 1 -35 21 -308 25 -341 19 -147 22 -162 24
-118 1 44 21 72 21 29 0 -33 17 -43 23 -14 3 13 5 -15 5 -62 -1 -47 3 -97 7
-112 6 -23 4 -28 -11 -28 -14 0 -15 -3 -6 -12 16 -16 15 -43 -3 -58 -12 -10
-17 -8 -25 11 -12 29 -3 -66 11 -121 5 -19 9 -54 9 -77 0 -51 20 -143 32 -143
4 0 9 -19 9 -42 l2 -43 6 35 7 35 7 -49 c10 -69 9 -116 -3 -116 -5 0 -10 -15
-10 -32 0 -25 3 -29 10 -18 10 16 12 0 16 -120 1 -30 8 -82 17 -115 24 -90 39
-182 41 -258 3 -69 12 -90 44 -92 16 -1 18 6 17 57 -1 54 3 63 28 59 4 -1 10
11 13 26 12 59 64 93 64 42 0 -11 5 -17 10 -14 12 8 13 88 1 101 -5 5 -11 18
-14 29 -3 13 -5 9 -6 -12 -1 -34 -15 -53 -19 -25 -3 33 -12 139 -21 276 -6 76
-13 147 -17 158 -3 10 -2 43 1 71 7 46 9 49 17 27 7 -18 11 -21 17 -11 15 23
23 -5 29 -95 4 -75 3 -86 -14 -99 -11 -8 -14 -14 -6 -15 6 0 12 -8 13 -17 0
-15 2 -15 8 2 11 26 21 -54 19 -142 -1 -66 16 -123 38 -123 8 0 14 10 14 23 0
18 2 19 11 7 8 -11 12 -12 16 -2 8 21 75 14 106 -12 24 -20 26 -24 13 -35 -8
-7 -13 -18 -10 -25 3 -7 -3 -19 -13 -28 -15 -13 -25 -14 -65 -5 -40 10 -48 16
-53 39 -8 33 -20 36 -35 9 -19 -37 -9 -121 15 -121 8 0 16 8 18 18 4 13 5 13
6 2 1 -12 10 -15 35 -12 18 2 37 -1 40 -7 4 -6 16 -11 26 -11 11 0 24 -9 30
-20 15 -27 48 -25 72 5 11 14 26 25 33 25 19 0 47 -30 41 -45 -2 -7 4 -21 14
-30 13 -12 17 -23 11 -33 -14 -24 -2 -47 35 -67 27 -14 37 -16 46 -7 9 9 9 16
-3 27 -9 10 -13 29 -11 60 4 42 6 45 32 45 16 0 31 6 34 13 5 10 7 10 12 0 3
-7 12 -13 20 -13 8 0 14 -4 14 -9 0 -5 15 -14 33 -21 31 -11 32 -11 12 -28
-15 -13 -19 -27 -17 -59 3 -36 0 -43 -15 -43 -14 0 -13 -3 6 -17 22 -15 25
-15 36 0 14 19 40 22 50 7 13 -20 25 2 25 46 0 39 3 44 23 44 21 0 21 1 -6 23
-29 23 -30 57 -1 57 8 0 14 7 14 16 0 15 2 15 24 0 14 -9 33 -13 42 -9 11 4
15 3 10 -5 -3 -6 -2 -13 3 -16 5 -3 11 3 14 14 3 11 12 20 21 20 15 0 22 30
10 43 -4 3 -7 25 -8 47 -1 23 -8 45 -14 49 -10 6 -9 18 3 52 14 38 16 108 14
514 -3 861 -2 1029 10 1033 15 5 14 79 -1 84 -8 3 -11 27 -8 79 2 41 3 111 2
157 -2 60 1 82 10 82 8 0 13 14 13 37 1 21 3 76 5 123 l4 85 7 -80 c4 -50 4
-37 1 35 -3 63 -6 141 -6 172 0 31 -3 55 -8 52 -4 -3 -8 4 -8 16 0 12 5 18 10
15 14 -9 13 178 -1 192 -8 8 -7 38 1 107 13 110 1 203 -28 213 -10 4 -30 19
-47 34 -56 52 -73 65 -112 85 -21 10 -39 22 -41 27 -2 4 -8 7 -14 7 -6 0 -32
13 -57 28 -57 35 -67 38 -113 34z m-148 -82 c0 -5 -7 -10 -15 -10 -8 0 -15 5
-15 10 0 6 7 10 15 10 8 0 15 -4 15 -10z m-813 -892 c-3 -7 -5 -2 -5 12 0 14
2 19 5 13 2 -7 2 -19 0 -25z m633 -1763 c0 -16 -9 -19 -34 -9 -20 8 -11 24 15
24 10 0 19 -7 19 -15z m73 -190 c17 -7 17 -8 -1 -19 -11 -6 -31 -19 -46 -30
-22 -15 -29 -16 -42 -6 -27 23 -38 52 -23 61 15 9 83 6 112 -6z m120 -9 c4
-10 0 -12 -14 -9 -10 3 -16 9 -13 14 8 13 21 11 27 -5z m407 -1 c10 -12 9 -22
-3 -52 l-14 -37 -17 31 c-22 43 -21 73 3 73 10 0 24 -7 31 -15z m-158 -190 c4
-5 8 -25 8 -42 0 -24 -7 -37 -26 -50 -26 -17 -27 -16 -50 11 -31 35 -31 70 -1
83 26 13 59 12 69 -2z m200 -51 c-2 -16 -10 -35 -20 -42 -14 -10 -20 -8 -39
14 -26 30 -28 46 -12 75 10 20 11 20 42 1 26 -15 31 -24 29 -48z m-612 -72 c0
-5 -7 -9 -15 -9 -8 0 -12 4 -9 9 3 4 9 8 15 8 5 0 9 -4 9 -8z"/>
<path d="M1997 13588 c-6 -18 11 -48 28 -48 8 0 15 -4 15 -10 0 -5 6 -10 14
-10 32 0 58 -67 67 -173 8 -99 39 -766 39 -849 0 -23 3 -38 8 -34 10 11 11
256 1 256 -5 0 -9 18 -9 40 0 22 4 40 9 40 5 0 12 36 16 80 7 76 8 80 31 80
21 0 24 4 24 40 0 29 -4 40 -15 40 -11 0 -15 11 -15 40 l0 40 40 0 40 0 0 40
c0 25 5 40 13 41 6 0 -4 6 -23 12 -19 7 -36 9 -38 5 -7 -15 -31 -8 -26 7 4 8
2 15 -3 15 -5 0 -24 15 -42 32 l-33 33 6 76 7 76 -39 42 c-21 22 -45 41 -53
41 -8 0 -24 14 -35 31 -15 20 -23 26 -27 17z m183 -358 c0 -5 -4 -10 -10 -10
-5 0 -10 5 -10 10 0 6 5 10 10 10 6 0 10 -4 10 -10z"/>
<path d="M497 13382 c4 -56 49 -364 59 -410 4 -19 7 -21 25 -11 13 7 19 7 15
1 -3 -6 -2 -13 2 -16 28 -17 45 105 25 174 -6 21 -7 59 -3 90 9 66 -7 170 -26
176 -25 7 -38 14 -71 33 l-31 20 5 -57z"/>
<path d="M2320 13189 c0 -5 5 -7 10 -4 6 3 10 8 10 11 0 2 -4 4 -10 4 -5 0
-10 -5 -10 -11z"/>
<path d="M2378 13173 c6 -2 18 -2 25 0 6 3 1 5 -13 5 -14 0 -19 -2 -12 -5z"/>
<path d="M2388 13133 c7 -3 16 -2 19 1 4 3 -2 6 -13 5 -11 0 -14 -3 -6 -6z"/>
<path d="M140 13033 c0 -60 11 -81 30 -58 10 12 11 24 1 55 -17 58 -31 59 -31
3z"/>
<path d="M153 12910 c2 -35 6 -45 20 -46 12 -2 13 -1 2 3 -8 2 -13 8 -11 12 2
3 1 22 -4 41 -9 34 -9 34 -7 -10z"/>
<path d="M10425 12849 c-4 -28 -13 -61 -19 -75 -7 -13 -12 -48 -12 -78 1 -30
-2 -52 -6 -49 -5 2 -8 -6 -8 -19 0 -13 -10 -51 -22 -86 -19 -54 -20 -64 -7
-77 14 -14 131 -31 264 -37 l60 -3 3 55 c7 115 -37 201 -124 243 -44 22 -53
32 -68 74 -34 92 -38 103 -46 103 -5 0 -11 -23 -15 -51z"/>
<path d="M277 12817 c-3 -8 -2 -19 2 -26 11 -16 43 -2 39 18 -4 20 -34 26 -41
8z"/>
<path d="M162 12673 c4 -40 44 -45 58 -8 14 36 14 35 -26 35 -33 0 -35 -2 -32
-27z"/>
<path d="M10089 12598 c-5 -13 -19 -39 -29 -58 -23 -43 -28 -140 -6 -140 17 0
31 36 46 120 7 36 14 73 17 83 6 25 -16 21 -28 -5z"/>
<path d="M2002 12455 c0 -16 2 -22 5 -12 2 9 2 23 0 30 -3 6 -5 -1 -5 -18z"/>
<path d="M317 12414 c-3 -3 -3 -12 0 -20 7 -19 53 -18 53 1 0 12 -7 14 -27 9
-22 -4 -25 -3 -13 5 8 6 10 11 4 11 -6 0 -13 -3 -17 -6z"/>
<path d="M2013 12360 c0 -25 2 -35 4 -22 2 12 2 32 0 45 -2 12 -4 2 -4 -23z"/>
<path d="M312 12243 c2 -20 9 -29 26 -31 26 -4 49 -35 58 -79 6 -30 3 -37 -33
-78 -7 -7 -13 -18 -13 -23 0 -15 35 -42 56 -42 43 0 45 9 29 130 -8 62 -16
114 -17 115 -16 13 -72 35 -88 35 -17 0 -21 -5 -18 -27z"/>
<path d="M2183 12200 c0 -25 2 -35 4 -22 2 12 2 32 0 45 -2 12 -4 2 -4 -23z"/>
<path d="M2184 12035 c0 -55 1 -76 3 -47 2 29 2 74 0 100 -2 26 -3 2 -3 -53z"/>
<path d="M680 12027 c0 -21 42 -335 49 -363 8 -36 9 -33 10 32 1 39 -3 84 -8
100 -5 16 -15 75 -21 132 -7 56 -16 102 -21 102 -5 0 -9 -1 -9 -3z"/>
<path d="M716 11963 c9 -52 14 -54 14 -5 0 23 -5 42 -10 42 -7 0 -8 -14 -4
-37z"/>
<path d="M2180 11913 c0 -5 5 -15 10 -23 8 -12 10 -11 10 8 0 12 -4 22 -10 22
-5 0 -10 -3 -10 -7z"/>
<path d="M214 11823 c-3 -18 -13 -38 -20 -44 -8 -6 -11 -16 -7 -22 4 -7 7 -32
8 -57 1 -26 7 -61 15 -79 13 -33 13 -33 64 -25 76 12 156 11 164 -2 4 -7 16
-13 27 -15 13 -3 22 -15 26 -34 5 -24 7 -20 8 20 1 50 -21 205 -34 237 -9 22
-25 14 -25 -13 0 -10 -4 -19 -10 -19 -5 0 -10 4 -10 9 0 16 -81 63 -93 53 -23
-16 -79 -13 -93 5 -12 16 -14 15 -20 -14z m213 -69 c-3 -3 -12 -4 -19 -1 -8 3
-5 6 6 6 11 1 17 -2 13 -5z"/>
<path d="M2191 11824 c0 -11 3 -14 6 -6 3 7 2 16 -1 19 -3 4 -6 -2 -5 -13z"/>
<path d="M2192 11740 c0 -14 2 -19 5 -12 2 6 2 18 0 25 -3 6 -5 1 -5 -13z"/>
<path d="M6985 11688 c-26 -23 -26 -26 -35 -213 -6 -104 -14 -266 -20 -360
-25 -440 -25 -407 0 -437 13 -17 31 -28 46 -28 13 0 37 12 54 28 l30 27 10
195 c6 107 15 278 20 380 23 424 25 382 -20 413 -33 23 -54 21 -85 -5z"/>
<path d="M7453 11695 c-24 -10 -34 -23 -42 -52 -6 -21 -18 -168 -26 -328 -8
-159 -20 -364 -25 -454 -9 -143 -8 -167 6 -188 20 -31 40 -38 69 -25 51 24 60
50 70 225 4 59 10 109 14 112 17 10 43 -78 71 -238 10 -54 18 -72 42 -92 34
-29 48 -31 87 -11 50 26 59 62 71 291 6 116 17 296 25 400 25 332 26 313 -12
342 -61 47 -115 11 -139 -92 -27 -117 -28 -116 -48 27 -5 36 -14 52 -34 66
-38 27 -91 34 -129 17z"/>
<path d="M8163 11671 c-39 -24 -40 -30 -48 -166 -15 -271 -37 -587 -45 -660
-17 -133 -14 -169 16 -205 22 -25 32 -30 53 -25 28 7 81 52 81 69 0 21 42 96
54 96 16 0 37 -45 30 -64 -3 -8 0 -25 6 -38 39 -74 93 -89 140 -38 33 35 37
58 50 260 14 209 46 626 55 701 4 33 1 37 -40 59 -43 24 -44 24 -84 5 -22 -10
-43 -25 -46 -34 -2 -9 -12 -117 -20 -241 -24 -336 -24 -343 -33 -349 -5 -3
-11 -14 -15 -23 -9 -25 -34 -22 -52 6 -14 22 -14 44 0 242 30 404 30 377 2
396 -40 28 -69 30 -104 9z"/>
<path d="M8992 11670 c-50 -12 -103 -60 -136 -123 -26 -50 -29 -69 -36 -195
-4 -77 -10 -144 -13 -149 -14 -22 -37 -413 -27 -454 21 -91 56 -131 132 -154
58 -17 103 -12 160 16 107 54 139 147 153 434 4 66 10 154 16 195 5 41 10 122
10 180 1 144 -23 200 -103 241 -38 20 -97 23 -156 9z m70 -227 c16 -40 13
-235 -6 -318 -8 -38 -20 -119 -27 -180 -11 -108 -25 -145 -54 -145 -20 0 -25
57 -15 175 5 61 14 173 20 249 15 208 49 299 82 219z"/>
<path d="M9705 11633 c-35 -8 -89 -37 -103 -53 -54 -65 -82 -197 -82 -390 0
-63 -4 -131 -9 -150 -21 -79 -26 -120 -26 -230 0 -151 17 -185 110 -230 71
-34 147 -23 218 33 61 47 91 121 100 249 6 70 1 80 -50 107 -17 9 -31 8 -65
-5 -55 -21 -65 -34 -73 -95 -7 -49 -42 -110 -46 -79 -7 60 -6 188 2 255 5 44
16 139 24 211 16 145 21 164 41 164 12 0 21 -42 15 -74 -6 -29 14 -68 41 -82
102 -53 183 69 148 223 -24 110 -131 173 -245 146z"/>
<path d="M2203 11520 c0 -47 2 -66 4 -42 2 23 2 61 0 85 -2 23 -4 4 -4 -43z"/>
<path d="M10363 11577 c-81 -42 -133 -136 -148 -265 -4 -35 -9 -80 -11 -100
-3 -20 -9 -113 -14 -207 -5 -93 -14 -190 -20 -215 -21 -85 14 -192 77 -234
108 -72 244 -28 311 99 20 38 51 211 44 247 -2 10 -19 27 -38 39 -31 19 -39
20 -84 9 -58 -14 -65 -24 -74 -104 -11 -97 -47 -118 -41 -23 9 148 27 352 31
358 2 4 6 45 9 91 2 46 9 96 15 112 9 24 13 26 25 16 12 -10 15 -30 13 -80 -3
-77 7 -96 58 -106 42 -8 93 22 119 69 27 51 17 188 -18 244 -46 72 -166 96
-254 50z"/>
<path d="M10992 11559 c-23 -10 -44 -24 -46 -31 -2 -7 -11 -85 -20 -173 -9
-88 -28 -214 -42 -280 -14 -70 -27 -172 -30 -245 -3 -69 -12 -153 -20 -188 -8
-34 -13 -71 -9 -81 19 -60 113 -85 160 -41 13 12 29 43 35 69 24 100 62 105
59 9 -2 -58 0 -63 31 -90 33 -30 44 -31 104 -8 29 11 63 72 71 127 2 21 9 54
15 73 5 19 10 72 10 116 0 45 14 194 31 330 17 137 33 279 36 315 l5 66 -40
21 c-34 18 -46 19 -79 10 -62 -16 -70 -29 -77 -126 -4 -48 -11 -116 -16 -152
-5 -36 -12 -90 -14 -120 -4 -53 -15 -110 -35 -194 -21 -87 -56 -69 -53 27 1
34 13 163 27 287 14 124 25 232 25 240 0 12 -45 43 -80 56 -3 1 -24 -7 -48
-17z"/>
<path d="M785 11520 c-4 -17 -5 -34 -2 -36 2 -3 7 10 11 27 8 42 0 50 -9 9z"/>
<path d="M11668 11527 c-22 -20 -27 -36 -32 -93 -4 -38 -12 -107 -18 -154 -7
-47 -11 -89 -10 -93 4 -14 -48 -378 -59 -413 -16 -53 -21 -76 -28 -163 -6 -64
-5 -91 6 -112 15 -29 39 -44 48 -29 3 5 28 188 55 407 67 541 72 592 68 637
l-3 38 -27 -25z"/>
<path d="M495 11431 c-3 -5 -1 -12 5 -16 5 -3 10 1 10 9 0 18 -6 21 -15 7z"/>
<path d="M2201 11389 c0 -13 4 -33 9 -44 7 -14 8 -8 3 20 -7 46 -13 59 -12 24z"/>
<path d="M2212 11175 c0 -16 2 -22 5 -12 2 9 2 23 0 30 -3 6 -5 -1 -5 -18z"/>
<path d="M812 11020 c0 -14 2 -19 5 -12 2 6 2 18 0 25 -3 6 -5 1 -5 -13z"/>
<path d="M2221 11024 c0 -11 3 -14 6 -6 3 7 2 16 -1 19 -3 4 -6 -2 -5 -13z"/>
<path d="M320 11011 c0 -6 -19 -12 -42 -14 -41 -3 -41 -4 10 -5 34 -1 52 -6
52 -14 0 -9 3 -8 10 2 5 9 5 19 -2 27 -12 15 -28 17 -28 4z"/>
<path d="M266 10946 c6 -14 -22 -30 -37 -20 -5 3 -9 -2 -9 -10 0 -13 5 -14 28
-5 15 6 45 14 66 17 60 11 58 32 -3 32 -39 0 -49 -3 -45 -14z"/>
<path d="M822 10915 c0 -27 3 -75 8 -105 l7 -55 1 55 c0 30 -3 78 -8 105 l-7
50 -1 -50z"/>
<path d="M853 10815 c0 -38 2 -53 4 -32 2 20 2 52 0 70 -2 17 -4 1 -4 -38z"/>
<path d="M560 10776 c0 -2 7 -6 15 -10 8 -3 15 -1 15 4 0 6 -7 10 -15 10 -8 0
-15 -2 -15 -4z"/>
<path d="M2233 10725 c0 -33 2 -45 4 -27 2 18 2 45 0 60 -2 15 -4 0 -4 -33z"/>
<path d="M872 10740 c0 -14 2 -19 5 -12 2 6 2 18 0 25 -3 6 -5 1 -5 -13z"/>
<path d="M1113 10600 c0 -25 2 -35 4 -22 2 12 2 32 0 45 -2 12 -4 2 -4 -23z"/>
<path d="M533 10466 c-31 -15 -29 -22 8 -30 57 -11 69 -8 69 19 0 21 -5 25
-27 24 -16 -1 -38 -6 -50 -13z"/>
<path d="M0 10324 c1 -105 1 -108 16 -80 12 21 14 42 10 78 -4 28 -3 55 2 61
6 8 3 19 -9 31 -19 19 -19 17 -19 -90z"/>
<path d="M8370 10313 c-34 -24 -45 -35 -53 -56 -6 -17 -5 -17 21 1 15 10 35
22 45 25 9 4 17 16 17 27 0 24 0 24 -30 3z"/>
<path d="M9623 10308 c-1 -11 -11 -27 -22 -34 -11 -8 -24 -29 -30 -47 -5 -18
-12 -41 -16 -52 -6 -16 -2 -14 16 7 27 30 64 44 74 28 4 -6 -10 -27 -29 -48
-38 -39 -42 -47 -26 -57 6 -3 10 -2 10 2 0 5 18 7 40 5 22 -2 40 -8 40 -13 0
-13 34 -11 47 2 8 8 15 5 26 -11 14 -20 19 -21 50 -11 36 12 148 11 140 -1 -6
-11 15 -10 55 1 21 6 43 6 58 1 16 -6 33 -6 49 2 18 8 28 8 38 0 26 -22 110
-18 148 6 19 12 28 22 21 22 -8 0 -10 8 -6 26 6 23 4 25 -17 22 -16 -2 -33 6
-50 25 -23 24 -30 26 -54 17 -20 -8 -30 -8 -35 0 -4 6 -15 8 -24 4 -11 -4 -22
-1 -27 7 -6 9 -11 11 -16 3 -10 -13 -55 -44 -65 -44 -5 0 -8 7 -8 16 0 13 -7
15 -29 11 -38 -8 -61 15 -43 44 16 25 15 39 -3 39 -8 0 -15 3 -15 8 0 4 -5 14
-10 22 -7 12 -23 0 -77 -57 -73 -78 -106 -94 -111 -55 -2 13 -21 41 -43 62
-21 21 -39 42 -39 48 0 21 -16 20 -17 0z m31 -77 c-8 -9 -34 10 -34 25 0 16 2
16 19 -2 10 -10 17 -21 15 -23z m226 -10 c0 -12 -58 -71 -70 -71 -6 0 3 13 20
30 16 16 30 34 30 40 0 5 5 10 10 10 6 0 10 -4 10 -9z"/>
<path d="M454 10300 c-34 -13 -36 -26 -11 -57 13 -15 29 -43 36 -60 13 -31 16
-33 66 -33 38 0 60 -6 79 -21 36 -28 31 -58 -17 -88 -23 -15 -33 -27 -26 -32
8 -4 8 -9 1 -13 -6 -4 -9 -13 -5 -21 3 -8 0 -15 -6 -15 -6 0 -11 -6 -11 -14 0
-8 -8 -17 -17 -20 -37 -10 -109 -18 -151 -18 -61 2 -79 -11 -87 -57 -8 -48
-38 -71 -94 -71 -22 0 -46 -3 -55 -6 -16 -6 -15 -8 20 -91 29 -66 6 -122 -63
-148 -24 -9 -43 -22 -43 -29 0 -6 -16 -35 -35 -65 l-35 -53 0 -489 c0 -269 3
-489 8 -489 15 0 97 32 109 42 13 10 11 162 -3 255 -4 29 -1 54 12 83 17 38
23 42 89 61 38 11 80 25 93 30 13 5 31 9 40 9 9 0 37 11 61 23 37 19 45 29 48
55 3 24 0 32 -11 32 -23 0 -20 15 6 32 21 14 22 16 6 49 -18 37 -16 48 5 31
13 -11 27 -7 27 8 0 4 -9 18 -21 31 -18 21 -18 25 -5 35 19 14 21 44 3 44 -8
0 -24 11 -36 24 -18 19 -21 28 -12 44 7 13 7 22 -1 30 -8 8 -2 20 25 46 20 19
37 42 37 51 0 12 5 15 18 10 9 -4 33 -9 53 -11 63 -6 126 -40 155 -84 27 -40
27 -40 9 -80 -10 -21 -25 -42 -33 -45 -14 -5 -14 -8 -3 -15 17 -10 23 -82 8
-92 -7 -4 0 -11 16 -17 26 -10 38 -31 17 -31 -5 0 -12 -11 -16 -25 -5 -19 -11
-24 -25 -20 -11 4 -19 2 -19 -3 0 -13 28 -23 34 -13 3 4 29 9 58 10 81 3 89
16 78 127 -5 49 -17 107 -25 128 -13 31 -14 48 -6 89 14 70 16 155 4 257 -5
47 -7 116 -3 154 9 107 -10 235 -40 268 -14 14 -37 40 -52 57 -28 30 -37 74
-18 86 15 9 12 25 -4 19 -9 -4 -15 5 -18 25 -2 17 0 32 6 34 6 2 3 11 -7 22
-12 11 -43 20 -90 26 -88 10 -97 10 -123 -1z m-234 -1120 c13 -9 13 -10 0 -10
-12 -1 -12 -3 3 -14 26 -20 21 -26 -23 -26 -44 0 -49 6 -22 26 14 11 14 13 2
14 -13 0 -13 1 0 10 8 5 17 10 20 10 3 0 12 -5 20 -10z"/>
<path d="M8624 10275 c-20 -30 -10 -47 11 -19 14 18 20 44 10 44 -2 0 -12 -11
-21 -25z"/>
<path d="M1600 10265 c0 -14 6 -25 14 -25 9 0 12 8 8 25 -2 14 -8 25 -13 25
-5 0 -9 -11 -9 -25z"/>
<path d="M8650 10244 c-6 -14 -10 -29 -10 -33 0 -4 -9 -16 -20 -26 -16 -14
-20 -15 -20 -4 0 8 5 20 11 26 14 14 3 33 -18 33 -9 0 -13 -6 -10 -14 4 -10 1
-13 -9 -9 -7 3 -14 1 -14 -4 0 -4 -10 -14 -21 -22 -17 -10 -23 -10 -29 -1 -12
19 -48 -10 -61 -48 -13 -39 -11 -41 25 -44 15 -1 32 -8 38 -15 14 -17 53 -16
68 2 6 8 21 17 33 21 33 11 47 29 56 81 5 26 13 56 16 66 5 12 2 17 -9 17 -9
0 -21 -12 -26 -26z"/>
<path d="M8944 10195 c-37 -45 -64 -58 -64 -30 0 11 -12 15 -48 15 -26 0 -52
4 -58 10 -14 14 -85 0 -91 -19 -2 -9 -9 -24 -14 -34 -14 -25 -2 -57 22 -57 10
0 19 5 19 11 0 6 8 8 19 4 10 -3 38 -1 62 4 36 8 46 8 55 -4 16 -21 26 -19 61
15 l31 30 6 -30 c4 -23 11 -30 30 -30 13 0 29 7 37 16 11 13 15 13 23 2 12
-14 86 -19 86 -5 0 4 9 3 21 -3 11 -7 28 -8 37 -4 9 4 21 8 25 8 12 1 37 37
37 54 0 10 -7 13 -22 8 -16 -4 -28 1 -39 16 l-17 21 -42 -21 c-41 -20 -67 -21
-55 -2 3 4 -6 10 -18 14 -13 3 -29 17 -37 31 -7 14 -17 25 -21 25 -4 0 -24
-20 -45 -45z m76 -25 c0 -5 -2 -10 -4 -10 -2 0 -12 -3 -22 -7 -16 -6 -17 -5
-4 10 17 19 30 22 30 7z"/>
<path d="M1897 10183 c-12 -11 -8 -23 8 -23 8 0 15 -5 15 -12 0 -6 2 -9 5 -7
6 7 -6 49 -14 49 -4 0 -11 -3 -14 -7z"/>
<path d="M310 10156 c0 -18 37 -24 91 -16 42 7 41 8 -21 9 -46 1 -61 4 -50 11
13 8 12 10 -2 10 -10 0 -18 -6 -18 -14z"/>
<path d="M2880 10120 c0 -29 4 -40 15 -40 11 0 15 11 15 40 0 29 -4 40 -15 40
-11 0 -15 -11 -15 -40z"/>
<path d="M10856 9885 c-4 -16 -12 -43 -16 -60 -11 -39 -10 -115 1 -115 5 0 9
14 9 31 0 16 5 49 11 73 6 24 9 56 7 72 l-4 29 -8 -30z"/>
<path d="M9058 9593 c-10 -2 -18 -9 -18 -14 0 -14 33 -10 54 6 20 15 20 15 0
14 -10 -1 -27 -3 -36 -6z"/>
<path d="M9077 9553 c-15 -2 -25 -9 -22 -14 7 -10 54 -2 70 12 9 9 3 9 -48 2z"/>
<path d="M590 9223 c0 -13 5 -23 10 -23 13 0 13 11 0 30 -8 12 -10 11 -10 -7z"/>
<path d="M9266 9141 c-3 -5 0 -11 8 -14 15 -6 26 1 26 15 0 11 -27 10 -34 -1z"/>
<path d="M9265 9070 c-7 -12 27 -22 37 -12 6 6 1 12 -11 15 -12 3 -23 2 -26
-3z"/>
<path d="M4195 8660 c3 -5 11 -10 16 -10 6 0 7 5 4 10 -3 6 -11 10 -16 10 -6
0 -7 -4 -4 -10z"/>
<path d="M750 8505 c7 -8 16 -15 21 -15 5 0 9 7 9 15 0 9 -9 15 -21 15 -18 0
-19 -2 -9 -15z"/>
<path d="M756 8465 c4 -8 10 -15 14 -15 4 0 10 7 14 15 4 10 -1 15 -14 15 -13
0 -18 -5 -14 -15z"/>
<path d="M4142 7944 c-15 -10 -22 -25 -22 -47 0 -25 -7 -37 -29 -50 -16 -9
-38 -17 -50 -17 -11 0 -32 -15 -47 -35 -14 -19 -32 -35 -38 -35 -7 0 -32 20
-56 45 -58 59 -91 75 -156 75 -29 0 -55 4 -58 9 -3 5 -35 12 -70 16 -56 6 -71
3 -120 -19 -31 -14 -70 -26 -86 -26 -16 0 -35 -6 -42 -12 -19 -18 -74 -48 -87
-48 -12 0 -27 -11 -59 -41 -9 -9 -37 -24 -62 -32 -25 -9 -65 -24 -90 -35 -43
-20 -43 -21 -20 -31 14 -5 84 -19 155 -31 72 -12 207 -38 300 -57 218 -44 290
-56 340 -54 22 0 60 -7 84 -16 34 -13 47 -14 62 -5 27 17 43 15 64 -8 24 -26
61 -26 68 1 4 15 -1 22 -19 29 -29 11 -54 64 -54 112 0 37 50 141 92 192 23
28 37 36 62 36 18 0 39 -6 47 -12 48 -40 198 -316 176 -323 -7 -2 -21 -5 -31
-7 -26 -4 -22 -22 6 -26 12 -2 31 -10 42 -18 11 -8 31 -14 44 -14 19 0 23 4
17 18 -4 9 -8 24 -9 31 -2 8 -8 17 -14 19 -11 3 -115 172 -129 209 -4 10 -11
23 -15 28 -23 28 -60 85 -83 128 -15 28 -36 52 -51 57 -33 13 -36 13 -62 -6z
m-72 -142 c0 -14 -39 -46 -47 -39 -3 4 2 16 12 27 19 21 35 26 35 12z m-91
-129 l24 -16 -22 -18 c-24 -20 -46 -16 -55 8 -6 15 9 43 23 43 4 0 17 -7 30
-17z"/>
<path d="M4687 7937 c-4 -11 -12 -61 -19 -113 -12 -100 -4 -144 27 -144 18 0
18 0 15 110 -2 107 -13 173 -23 147z"/>
<path d="M6122 7883 c2 -10 43 -36 101 -65 82 -40 112 -63 186 -136 48 -48 93
-100 99 -117 14 -41 24 -93 15 -79 -5 7 -23 10 -42 8 -30 -4 -42 3 -102 56
-37 33 -71 60 -76 60 -5 0 -16 9 -26 20 -17 21 -37 27 -37 12 0 -5 9 -13 20
-18 11 -5 56 -45 100 -89 78 -76 81 -81 75 -116 -6 -36 -6 -36 39 -48 30 -7
53 -8 70 -1 26 10 34 34 16 45 -5 3 -10 12 -10 18 0 27 21 41 66 46 42 5 49 9
56 36 5 17 6 55 3 87 -3 32 -2 59 4 62 5 4 42 3 83 0 68 -7 75 -10 108 -45 41
-44 80 -58 99 -35 7 9 11 22 8 30 -7 18 13 26 64 26 28 0 39 4 39 15 0 8 -4
15 -9 15 -5 0 -7 8 -4 18 8 31 -51 73 -118 82 -43 6 -69 17 -96 39 -25 21 -48
31 -70 31 -32 0 -33 -1 -33 -40 0 -44 5 -41 -92 -45 -15 -1 -31 -4 -34 -8 -4
-4 -18 -7 -31 -7 -26 0 -32 -29 -10 -52 6 -7 26 -32 44 -54 27 -35 31 -47 26
-82 -3 -23 -9 -42 -13 -42 -14 0 -138 126 -145 148 -3 12 -14 22 -23 22 -9 0
-36 17 -59 38 -108 95 -150 129 -192 154 -53 32 -104 38 -99 11z m825 -235
c-3 -7 -5 -2 -5 12 0 14 2 19 5 13 2 -7 2 -19 0 -25z m-417 -228 c0 -5 -4 -10
-10 -10 -5 0 -10 5 -10 10 0 6 5 10 10 10 6 0 10 -4 10 -10z"/>
<path d="M6400 7866 c0 -7 19 -26 43 -42 23 -16 48 -35 55 -41 18 -18 24 -16
44 12 l18 24 -54 30 c-56 33 -106 41 -106 17z"/>
<path d="M4937 7844 c-8 -8 1 -24 14 -24 5 0 9 7 9 15 0 15 -12 20 -23 9z"/>
<path d="M4612 7604 c1 -9 9 -19 16 -22 9 -3 13 2 10 14 -1 9 -9 19 -16 22 -9
3 -13 -2 -10 -14z"/>
<path d="M4616 7525 c-13 -10 -17 -21 -12 -40 l7 -26 32 18 c36 22 44 57 12
60 -11 2 -28 -4 -39 -12z"/>
<path d="M4516 7438 c2 -3 -1 -8 -8 -10 -23 -8 4 -27 48 -34 51 -7 50 -8 59
27 7 26 6 27 -48 25 -30 0 -53 -4 -51 -8z"/>
<path d="M5636 6415 c-16 -8 -45 -17 -65 -20 -87 -11 -174 -14 -189 -6 -16 8
-35 5 -179 -29 -24 -5 -52 -6 -65 -1 -15 5 -34 4 -53 -4 -39 -17 -192 -48
-230 -48 -16 0 -32 -3 -35 -7 -3 -3 -31 -12 -64 -18 -32 -7 -79 -22 -105 -33
-100 -47 -147 -73 -159 -91 -7 -10 -19 -18 -26 -18 -18 0 -83 -62 -139 -131
-33 -41 -49 -73 -61 -122 -9 -37 -14 -72 -11 -77 9 -14 -10 -13 -118 10 -105
21 -306 36 -358 26 -19 -3 -47 -17 -64 -30 l-29 -23 54 -31 c58 -33 182 -66
315 -84 106 -14 185 -36 185 -51 -1 -7 -7 -29 -14 -50 -14 -38 -14 -78 -1
-228 8 -94 2 -110 -37 -86 -33 21 -144 45 -286 62 -142 17 -166 22 -322 75
-181 61 -299 84 -420 84 -68 -1 -120 -6 -148 -16 -29 -11 -53 -13 -78 -8 -41
10 -77 38 -67 54 4 6 6 19 5 29 -2 10 8 38 22 62 l26 43 -29 7 c-16 3 -47 2
-68 -4 -21 -5 -63 -13 -93 -16 -37 -5 -68 -17 -94 -36 -22 -16 -47 -29 -57
-29 -9 0 -36 -16 -60 -35 -35 -28 -53 -35 -87 -35 -27 0 -54 -7 -71 -19 -39
-28 -75 -35 -93 -18 -22 23 -72 29 -118 16 -37 -11 -44 -11 -55 4 -6 9 -15 14
-19 10 -4 -4 -9 3 -13 15 -8 32 -87 31 -135 -2 -23 -15 -45 -22 -60 -19 -35 7
-83 -37 -103 -95 -9 -26 -21 -55 -26 -64 -10 -19 5 -26 16 -8 4 6 11 7 17 4 7
-5 3 -10 -10 -15 -35 -13 -25 -29 18 -29 29 0 40 4 40 15 0 8 8 15 19 15 10 0
33 3 51 7 23 4 31 3 26 -5 -9 -15 8 -23 55 -27 52 -4 63 -15 15 -15 -26 0 -36
-4 -33 -12 3 -9 20 -12 47 -10 26 2 46 -2 51 -9 6 -10 11 -10 22 -1 18 16 30
3 13 -14 -15 -15 -77 -14 -88 1 -4 5 -10 6 -14 2 -10 -10 17 -39 32 -33 7 3
16 0 20 -6 5 -7 -5 -9 -32 -4 -63 11 -74 16 -74 34 0 14 -2 15 -9 2 -6 -8 -7
-18 -5 -22 3 -4 1 -8 -3 -8 -11 0 -56 31 -65 45 -4 6 -32 12 -62 13 -49 2 -56
0 -56 -16 0 -10 11 -25 25 -32 14 -7 34 -28 45 -47 10 -18 24 -33 31 -33 6 0
28 -13 49 -30 21 -16 43 -30 49 -30 6 0 11 -4 11 -10 0 -5 9 -10 20 -10 11 0
20 -6 20 -13 0 -21 55 -65 99 -81 32 -10 56 -12 99 -5 171 26 335 39 520 41
186 2 223 -1 362 -25 163 -29 467 -104 559 -138 50 -18 325 -90 401 -104 189
-35 272 -68 350 -139 33 -29 39 -40 29 -47 -21 -13 -51 -11 -100 6 -24 9 -109
22 -189 30 -95 9 -169 22 -215 38 -83 28 -254 63 -380 77 -197 22 -325 5 -414
-54 -49 -33 -56 -50 -32 -80 45 -53 263 -125 486 -162 155 -25 434 -112 601
-188 87 -39 170 -66 309 -101 105 -26 242 -67 305 -90 109 -40 213 -72 480
-144 234 -63 372 -106 373 -116 1 -5 -12 -11 -29 -13 -45 -4 -322 35 -439 63
-55 13 -122 27 -150 30 -27 4 -106 17 -175 30 -136 26 -319 55 -500 80 -63 9
-149 20 -190 26 -133 18 -401 89 -531 139 -150 59 -242 80 -350 80 -86 0 -172
-17 -163 -31 3 -5 -5 -8 -18 -6 -17 1 -23 -3 -22 -16 1 -11 -4 -16 -15 -15
-12 2 -17 -6 -19 -30 -4 -42 13 -62 87 -104 68 -38 91 -57 91 -74 0 -17 -46
-41 -135 -71 -38 -13 -60 -21 -47 -19 28 5 29 -10 1 -19 -13 -4 -25 -2 -29 5
-5 9 -9 9 -14 1 -4 -6 -2 -11 3 -11 6 0 11 -4 11 -10 0 -5 -12 -10 -26 -10
-14 0 -23 -4 -19 -10 3 -5 2 -10 -4 -10 -6 0 -8 -7 -4 -16 3 -9 0 -20 -7 -24
-11 -7 -9 -15 9 -42 33 -48 81 -80 290 -195 102 -55 187 -108 189 -116 4 -20
-24 -35 -88 -47 -43 -8 -68 -5 -178 22 -109 28 -145 32 -257 33 -148 0 -209
-9 -201 -30 3 -9 -5 -16 -25 -20 -16 -4 -29 -11 -29 -16 0 -5 -11 -11 -25 -15
-33 -8 -42 -46 -20 -82 38 -59 109 -98 250 -137 96 -27 220 -68 485 -162 132
-47 243 -100 298 -143 45 -35 141 -157 247 -317 37 -56 140 -175 245 -283 46
-47 185 -167 320 -277 41 -34 104 -91 140 -127 35 -36 70 -66 76 -66 7 0 74
30 150 66 77 36 178 84 227 107 48 23 87 46 87 53 0 23 -127 129 -206 173
-136 75 -279 202 -322 287 -25 48 -53 67 -244 163 -148 74 -222 125 -233 161
-3 11 2 36 11 56 17 36 17 37 -5 55 -13 11 -60 30 -105 44 -45 14 -91 32 -102
39 -19 15 -19 15 3 37 34 35 119 37 213 6 92 -31 128 -44 350 -119 96 -32 240
-79 320 -104 407 -127 691 -229 768 -276 121 -74 305 -138 398 -138 22 0 58 8
80 19 21 10 105 49 187 86 81 37 150 72 153 77 9 14 -43 65 -110 110 -70 45
-154 73 -286 94 -52 8 -149 26 -215 39 -66 13 -172 31 -235 40 -173 24 -333
61 -503 115 -83 27 -224 67 -312 90 -365 94 -677 220 -856 346 -41 29 -121 76
-178 104 -56 29 -105 59 -108 67 -8 20 33 57 87 78 84 32 168 30 355 -8 94
-20 195 -45 225 -56 31 -12 92 -30 135 -41 44 -12 154 -45 245 -75 91 -30 197
-63 235 -74 39 -10 147 -42 240 -71 94 -29 238 -70 320 -91 83 -20 191 -53
240 -72 50 -19 155 -55 235 -80 80 -26 161 -58 181 -71 47 -32 259 -102 368
-121 126 -22 267 -20 336 6 60 22 120 68 130 99 14 45 -57 121 -161 170 -82
40 -155 57 -309 76 -71 9 -189 29 -260 44 -72 16 -205 41 -295 55 -91 14 -208
37 -260 51 -52 13 -178 42 -280 63 -297 62 -544 136 -755 224 -92 38 -159 58
-285 83 -250 50 -317 75 -342 130 -11 24 -9 29 15 50 46 40 117 33 398 -37
179 -45 273 -63 354 -69 110 -8 500 -70 565 -90 19 -6 80 -17 135 -25 160 -23
269 -41 440 -74 88 -17 219 -43 290 -56 72 -14 165 -31 208 -40 42 -8 110 -26
150 -40 39 -14 106 -36 147 -49 41 -12 104 -35 140 -49 161 -65 376 -103 483
-86 110 18 161 60 142 118 -10 32 -78 95 -128 119 -76 36 -221 68 -537 121
-162 27 -347 64 -410 81 -63 18 -218 58 -345 90 -418 106 -544 141 -637 176
-139 52 -258 88 -408 123 -260 59 -359 90 -465 144 -48 24 -245 88 -314 102
-54 11 -271 85 -313 106 -21 11 -38 26 -38 33 0 8 14 29 32 47 32 31 33 32
108 26 48 -3 103 -16 155 -35 131 -50 305 -103 357 -109 26 -3 48 -9 48 -12 0
-3 31 -6 69 -6 52 0 74 -4 88 -18 11 -9 30 -17 44 -17 13 0 38 -7 54 -16 64
-33 235 -84 350 -103 66 -12 129 -23 140 -25 71 -14 149 -19 285 -18 95 1 182
-4 225 -13 39 -7 90 -16 115 -20 25 -3 74 -14 110 -25 203 -60 327 -91 487
-125 40 -8 89 -22 109 -30 20 -8 120 -35 223 -60 102 -25 220 -54 261 -65 41
-11 99 -25 128 -30 29 -5 78 -16 110 -24 31 -8 80 -17 107 -21 28 -3 149 -29
270 -56 279 -64 295 -67 425 -79 109 -10 210 0 210 21 0 5 7 9 15 9 8 0 19 9
25 20 14 25 -16 68 -80 115 -91 67 -231 110 -545 170 -104 20 -284 60 -400 89
-115 29 -244 61 -285 71 -41 9 -108 31 -149 47 -86 34 -242 63 -386 72 -55 4
-104 11 -109 16 -14 14 97 79 156 91 29 6 57 15 63 20 5 5 16 9 25 9 8 0 26
12 39 25 13 14 29 25 37 25 8 0 14 5 14 10 0 6 12 15 28 21 15 7 37 16 50 22
17 8 37 6 85 -10 80 -26 142 -41 253 -58 299 -46 367 -57 442 -76 100 -24 236
-51 392 -78 207 -36 309 -62 538 -136 125 -41 259 -82 297 -91 97 -23 287 -24
338 -1 20 10 37 21 37 26 0 24 -96 102 -172 139 -107 52 -215 77 -413 97 -161
15 -303 46 -670 145 -94 25 -200 46 -285 55 -99 11 -148 22 -185 39 -27 13
-84 32 -125 41 -84 18 -253 26 -288 13 -18 -6 -27 -4 -40 13 -11 13 -23 18
-35 14 -22 -9 -22 -24 1 -32 20 -8 41 -33 42 -50 0 -9 -20 -13 -66 -13 l-65 0
3 28 c2 15 8 26 15 25 6 -1 21 18 32 42 12 25 25 45 30 45 5 0 16 29 25 65 13
53 14 74 5 110 -7 28 -9 76 -5 123 3 42 9 121 12 175 l7 97 57 0 c59 0 157
-20 550 -115 124 -29 277 -65 340 -80 63 -14 180 -48 260 -74 206 -69 382
-105 475 -98 40 3 86 12 101 20 l29 15 -42 40 c-93 89 -239 134 -565 172 -95
11 -240 34 -323 50 -393 78 -473 93 -658 125 -108 19 -202 37 -208 40 -11 7
-10 183 0 189 3 2 31 -3 61 -11 30 -8 102 -23 160 -34 261 -47 314 -60 430
-107 136 -55 359 -79 435 -48 39 17 43 26 18 49 -60 53 -210 100 -393 123
-162 20 -177 23 -290 72 -73 31 -381 122 -414 122 -3 0 -2 22 1 48 4 34 1 52
-9 63 -7 8 -21 30 -30 50 -17 34 -76 102 -128 145 -14 11 -42 40 -64 64 -46
51 -144 113 -169 106 -10 -2 -30 2 -45 9 -88 44 -181 75 -265 89 -7 1 -26 16
-44 34 -32 32 -65 40 -108 23 -20 -8 -41 -4 -155 29 -68 20 -228 50 -269 50
-13 0 -31 9 -40 19 -24 27 -79 35 -115 16z m-1326 -790 c17 -37 17 -46 5 -110
-10 -49 -14 -155 -15 -354 0 -256 -2 -283 -15 -265 -15 18 -15 18 -13 -11 2
-24 -1 -31 -19 -33 -12 -2 -26 -15 -33 -32 -14 -34 -65 -55 -113 -46 -30 5
-200 49 -367 94 -41 11 -96 24 -123 27 -55 8 -68 22 -41 42 29 22 153 11 238
-21 106 -40 251 -32 251 14 0 8 -22 26 -49 39 -42 21 -61 24 -128 22 -192 -7
-255 -4 -345 17 -51 12 -146 28 -212 37 -66 8 -155 24 -198 35 -79 21 -183 65
-183 79 0 4 15 16 34 26 23 12 36 28 40 47 3 16 12 28 21 28 18 0 19 -5 4 -32
-10 -18 -8 -25 11 -40 49 -39 72 -12 42 50 -30 62 -21 67 100 53 56 -6 191
-18 298 -26 145 -10 248 -25 400 -55 141 -29 224 -41 265 -38 42 2 60 -1 61
-9 1 -7 2 -22 3 -33 0 -11 6 -20 12 -20 7 0 9 10 5 25 -3 13 -1 100 5 192 5
92 12 207 13 254 3 83 15 132 23 99 3 -8 13 -33 23 -55z m2761 -46 c-5 -30 -9
-42 -10 -28 -1 30 10 92 15 86 3 -2 0 -28 -5 -58z m-32 -229 c-12 -235 -38
-471 -55 -490 -16 -19 -28 -80 -15 -80 5 0 13 9 16 20 9 29 25 14 24 -23 -1
-37 -17 -85 -18 -54 -1 9 -5 17 -10 17 -13 0 -21 -40 -14 -68 4 -16 -1 -29
-17 -44 -27 -25 -39 -12 -40 42 -1 19 -4 58 -8 85 -3 28 -5 127 -3 221 3 181
-4 211 -34 148 -13 -28 -19 -81 -25 -223 -10 -213 -18 -281 -34 -281 -6 0 -5
-4 3 -9 9 -6 12 -18 7 -37 -4 -16 -7 -35 -8 -41 -1 -7 -7 -13 -15 -13 -7 0
-13 -7 -13 -15 0 -8 -9 -15 -20 -15 -16 0 -20 7 -20 30 0 18 -6 33 -15 36 -8
4 -12 10 -10 15 7 11 -32 89 -45 89 -5 0 -12 15 -15 33 -8 40 -39 64 -61 46
-7 -6 -11 -16 -8 -21 3 -5 -4 -32 -16 -60 -18 -43 -20 -58 -12 -87 5 -20 10
-44 9 -53 0 -20 -12 -24 -22 -8 -3 6 -1 10 4 10 6 0 11 7 11 15 0 11 -11 15
-40 15 -29 0 -40 -4 -40 -15 0 -20 -46 -30 -65 -15 -8 7 -15 19 -15 27 0 12
-7 14 -28 10 -22 -5 -29 -1 -40 21 -6 14 -12 42 -13 61 0 20 -3 30 -6 23 -2
-6 -9 -10 -14 -6 -13 8 -11 48 3 62 10 10 10 17 0 32 -10 17 -10 21 3 26 8 4
15 11 14 18 -5 44 2 86 16 86 22 0 21 76 -1 84 -13 5 -14 9 -4 22 10 11 10 18
2 26 -17 17 -15 38 3 38 11 0 14 7 9 25 -5 19 -2 25 10 25 9 0 16 5 16 10 0 6
8 10 19 10 10 0 31 6 46 14 15 8 57 22 94 32 36 9 71 22 76 28 6 7 20 12 32
13 12 1 31 11 42 22 12 12 30 21 41 21 11 0 20 7 20 15 0 10 10 15 30 15 17 0
30 4 30 8 0 4 12 15 28 24 15 9 58 46 95 82 37 36 71 66 76 66 4 0 14 18 21
40 7 22 16 37 20 33 4 -4 3 -87 -1 -183z m-5049 156 c0 -2 -9 -6 -20 -9 -11
-3 -20 -1 -20 4 0 5 9 9 20 9 11 0 20 -2 20 -4z m2407 -46 c8 -12 9 -21 3 -25
-6 -3 -10 -12 -10 -18 0 -7 4 -6 10 3 8 13 14 10 35 -15 13 -16 24 -33 25 -37
0 -4 6 -5 13 -3 8 4 13 -7 15 -32 1 -20 8 -40 14 -44 7 -4 12 -24 12 -43 0
-20 4 -36 8 -36 4 0 8 -11 8 -25 0 -18 5 -25 19 -25 22 0 35 -48 19 -68 -8 -9
-8 -20 0 -37 7 -15 8 -26 2 -30 -6 -4 -10 -16 -9 -28 0 -12 3 -16 6 -9 10 24
32 11 42 -25 13 -47 14 -56 1 -48 -5 3 -10 17 -10 30 0 13 -5 27 -12 31 -19
12 -1 -66 19 -82 16 -12 15 -13 -14 -14 -32 0 -33 -2 -33 -40 0 -34 -4 -42
-26 -52 -14 -7 -32 -23 -39 -37 -13 -23 -14 -24 -15 -6 0 11 -7 28 -15 38 -13
18 -15 16 -26 -22 -13 -43 -29 -39 -29 6 0 12 -7 28 -15 37 -8 8 -15 17 -15
21 0 4 -6 13 -14 20 -18 18 -26 254 -18 523 2 49 5 62 18 62 12 0 15 6 10 25
-8 30 4 33 21 5z m-2462 -10 c-3 -5 -11 -10 -16 -10 -6 0 -7 5 -4 10 3 6 11
10 16 10 6 0 7 -4 4 -10z m240 -20 c-3 -5 -10 -10 -16 -10 -5 0 -9 5 -9 10 0
6 7 10 16 10 8 0 12 -4 9 -10z m-205 -10 c0 -5 -4 -10 -10 -10 -5 0 -10 5 -10
10 0 6 5 10 10 10 6 0 10 -4 10 -10z m380 0 c0 -5 -9 -10 -20 -10 -11 0 -20 5
-20 10 0 6 9 10 20 10 11 0 20 -4 20 -10z m-262 -7 c-10 -2 -28 -2 -40 0 -13
2 -5 4 17 4 22 1 32 -1 23 -4z m322 -8 c0 -8 -7 -15 -16 -15 -14 0 -14 3 -4
15 7 8 14 15 16 15 2 0 4 -7 4 -15z m675 5 c-3 -5 -17 -9 -30 -8 -31 3 -21 18
11 18 14 0 22 -4 19 -10z m-898 -56 c-3 -3 -12 -4 -19 -1 -8 3 -5 6 6 6 11 1
17 -2 13 -5z m5923 -33 c0 -6 -4 -13 -10 -16 -5 -3 -10 1 -10 9 0 9 5 16 10
16 6 0 10 -4 10 -9z m-5866 -20 c4 -5 -3 -7 -14 -4 -23 6 -26 13 -6 13 8 0 17
-4 20 -9z m716 -26 c0 -3 -9 -14 -21 -26 -15 -15 -19 -28 -14 -47 6 -27 6 -27
-9 -6 -14 20 -14 25 0 53 8 17 22 31 30 31 8 0 14 -2 14 -5z m-800 -41 c0 -14
8 -16 53 -11 51 6 51 6 24 -9 -16 -9 -36 -13 -44 -10 -9 4 -23 1 -31 -6 -12
-10 -14 -10 -8 0 5 8 -1 12 -18 12 -30 0 -33 8 -8 26 23 18 32 17 32 -2z
m-230 -74 c13 -7 21 -7 25 0 8 13 45 13 45 0 0 -5 -8 -10 -17 -10 -31 -1 16
-30 47 -30 14 0 35 -6 45 -14 16 -11 11 -12 -38 -5 -61 8 -129 36 -135 57 -4
15 3 15 28 2z m214 -7 c31 -4 36 -7 22 -15 -9 -5 -25 -6 -36 -3 -11 3 -42 6
-70 7 -27 0 -50 4 -50 9 0 10 67 11 134 2z m2681 -3 c3 -6 -5 -10 -19 -10 -14
0 -28 5 -31 10 -3 6 5 10 19 10 14 0 28 -4 31 -10z m-2640 -50 c-3 -5 -13 -10
-21 -10 -8 0 -12 5 -9 10 3 6 13 10 21 10 8 0 12 -4 9 -10z m-25 -90 c0 -5
-19 -9 -42 -9 l-43 2 35 7 c19 4 38 8 43 9 4 0 7 -3 7 -9z m3940 -12 c0 -9 5
-20 10 -23 15 -9 12 -42 -4 -48 -22 -9 -28 -69 -11 -110 8 -21 11 -37 5 -37
-15 0 -30 35 -30 69 0 17 -5 31 -11 31 -8 0 -7 6 2 17 13 15 11 16 -21 10 -36
-7 -71 6 -57 20 5 4 12 1 17 -7 8 -12 13 -11 32 7 13 11 33 24 46 28 22 6 23
8 6 26 -9 10 -26 19 -36 19 -11 0 -16 5 -13 10 11 18 65 8 65 -12z m-105 2
c-8 -13 -35 -13 -55 0 -11 7 -5 10 23 10 23 0 36 -4 32 -10z m2775 -105 c0 -8
-7 -15 -15 -15 -9 0 -12 6 -9 15 4 8 10 15 15 15 5 0 9 -7 9 -15z m-4490 -75
c0 -5 -2 -10 -4 -10 -3 0 -8 5 -11 10 -3 6 -1 10 4 10 6 0 11 -4 11 -10z m360
-30 c0 -5 -4 -10 -9 -10 -6 0 -13 5 -16 10 -3 6 1 10 9 10 9 0 16 -4 16 -10z
m-272 -115 c8 3 19 0 24 -7 14 -22 9 -30 -14 -22 -20 6 -21 5 -9 -10 22 -26 2
-18 -24 10 -19 20 -22 29 -12 39 10 11 13 10 15 -2 2 -9 10 -12 20 -8z m1688
15 c18 0 24 -5 24 -22 0 -13 -7 -32 -16 -43 -12 -16 -16 -17 -23 -6 -5 8 -7
20 -4 27 2 7 -5 15 -16 19 -12 3 -21 13 -21 22 0 10 6 13 16 9 9 -3 27 -6 40
-6z m64 -22 c0 -12 3 -19 6 -15 4 3 13 -1 22 -9 12 -13 13 -19 2 -39 -7 -14
-17 -22 -22 -19 -4 3 -8 -3 -8 -13 -1 -14 -4 -13 -15 7 -15 26 -20 92 -8 103
13 13 23 7 23 -15z m-2905 -78 c-3 -5 -15 -10 -26 -10 -11 0 -17 5 -14 10 3 6
15 10 26 10 11 0 17 -4 14 -10z m4409 -147 c28 -15 29 -16 11 -29 -20 -15 -58
-12 -122 8 -33 10 -44 32 -20 42 19 8 99 -4 131 -21z m-2644 -73 c0 -5 -9 -10
-20 -10 -11 0 -20 5 -20 10 0 6 9 10 20 10 11 0 20 -4 20 -10z m1425 -203
c172 -48 309 -79 445 -102 219 -38 577 -125 658 -160 55 -25 37 -55 -31 -55
-35 0 -223 43 -392 90 -182 50 -278 70 -425 85 -123 13 -154 20 -253 59 -61
24 -138 49 -169 56 -87 17 -92 37 -11 49 49 7 91 2 178 -22z m-3203 -104 c21
-9 38 -23 38 -31 0 -13 -3 -12 -18 1 -10 10 -22 14 -26 10 -4 -5 -14 1 -22 11
-8 11 -14 14 -14 8 0 -16 -12 -15 -36 3 -18 14 -18 14 10 15 16 0 47 -8 68
-17z m5928 -13 c0 -11 -4 -20 -10 -20 -5 0 -10 9 -10 20 0 11 5 20 10 20 6 0
10 -9 10 -20z m-5872 -123 c5 -23 -10 -21 -26 4 -12 18 -11 20 5 17 10 -2 19
-11 21 -21z m-178 -216 c0 -6 -4 -13 -10 -16 -5 -3 -10 1 -10 9 0 9 5 16 10
16 6 0 10 -4 10 -9z m5210 -42 c-6 -10 -15 -19 -21 -19 -6 0 -8 3 -6 8 2 4 7
15 10 25 4 10 11 15 17 12 7 -4 7 -13 0 -26z m-4810 -289 c0 -5 -4 -10 -9 -10
-6 0 -13 5 -16 10 -3 6 1 10 9 10 9 0 16 -4 16 -10z m3831 -63 c-11 -12 -23
-19 -25 -16 -9 9 25 50 36 43 6 -4 2 -14 -11 -27z m-4596 -77 c-3 -5 -13 -10
-21 -10 -8 0 -12 5 -9 10 3 6 13 10 21 10 8 0 12 -4 9 -10z m4036 -363 c-29
-30 -39 -12 -10 19 14 15 25 20 27 14 3 -7 -5 -21 -17 -33z m-2486 -519 c90
-53 119 -82 112 -110 -8 -30 -59 -58 -106 -58 -23 0 -39 9 -63 37 -18 20 -55
58 -82 83 -53 51 -54 64 -3 79 44 13 83 4 142 -31z"/>
<path d="M4235 5080 c-3 -5 -1 -10 4 -10 6 0 11 5 11 10 0 6 -2 10 -4 10 -3 0
-8 -4 -11 -10z"/>
<path d="M4167 4953 c8 -12 19 -20 24 -17 11 7 -10 41 -27 41 -9 0 -9 -6 3
-24z"/>
<path d="M1610 5990 c-11 -7 -5 -8 20 -4 43 8 51 14 19 14 -13 0 -31 -5 -39
-10z"/>
<path d="M1668 5973 c6 -2 18 -2 25 0 6 3 1 5 -13 5 -14 0 -19 -2 -12 -5z"/>
<path d="M1665 5949 c-21 -5 -45 -7 -52 -5 -7 3 -13 -1 -13 -9 0 -8 -10 -16
-22 -17 -43 -3 -53 -5 -95 -17 -23 -6 -55 -9 -70 -6 -24 5 -25 4 -8 -5 16 -8
13 -9 -15 -5 -22 3 -30 2 -21 -4 8 -5 -10 -11 -53 -16 -36 -3 -66 -11 -66 -16
0 -5 -12 -6 -26 -3 -19 5 -25 4 -20 -5 4 -7 0 -11 -11 -11 -18 -1 -164 -48
-151 -49 3 -1 105 23 225 53 120 30 270 66 333 80 111 26 170 47 125 45 -11
-1 -38 -5 -60 -10z"/>
<path d="M1690 5290 c-13 -8 -13 -10 2 -10 9 0 20 5 23 10 8 13 -5 13 -25 0z"/>
<path d="M850 5286 c0 -2 8 -10 18 -17 15 -13 16 -12 3 4 -13 16 -21 21 -21
13z"/>
<path d="M1845 5281 c11 -5 30 -10 42 -10 12 -1 23 -6 25 -13 3 -8 6 -7 10 3
3 9 1 16 -5 17 -71 11 -90 11 -72 3z"/>
<path d="M7146 5015 c-36 -28 5 -66 96 -91 29 -7 117 -25 196 -40 136 -25 206
-42 447 -114 61 -18 144 -41 185 -51 41 -10 156 -38 255 -62 130 -33 182 -42
187 -34 4 7 27 12 52 12 24 0 42 3 39 8 -2 4 7 7 21 7 14 0 26 -2 26 -4 0 -9
-101 -56 -120 -56 -11 0 -20 -5 -20 -10 0 -7 18 -9 48 -6 220 24 337 25 359 3
13 -13 -4 -16 -37 -7 -21 6 -38 6 -43 1 -6 -6 -19 -5 -34 2 -17 8 -26 8 -31 0
-6 -9 -101 -17 -167 -14 -18 1 -140 -22 -187 -36 -11 -3 -18 1 -18 10 0 13
-14 14 -77 10 -60 -4 -117 2 -248 25 -93 17 -260 44 -370 62 -110 17 -240 40
-290 50 -168 35 -335 37 -335 4 0 -8 1 -14 3 -14 1 0 27 -9 57 -20 30 -11 106
-27 170 -35 63 -9 185 -29 270 -45 85 -16 193 -34 240 -40 115 -14 313 -44
560 -86 150 -26 236 -46 320 -76 343 -122 494 -168 554 -168 101 -2 117 2 110
25 -4 11 -19 34 -35 50 -16 17 -29 33 -29 36 0 2 29 6 64 7 90 2 196 23 196
38 0 3 -12 20 -26 39 -34 45 -21 68 48 91 29 9 64 24 76 32 l24 16 -22 16 -22
16 35 27 c19 14 46 29 60 32 13 4 35 18 47 32 21 24 21 25 3 40 -13 10 -14 16
-6 19 16 7 73 107 73 127 0 35 -127 78 -242 83 -49 2 -88 0 -88 -5 0 -5 -18
-11 -40 -15 -58 -9 -90 -26 -96 -53 -4 -12 -10 -21 -14 -18 -5 3 -12 0 -15 -5
-4 -7 -19 -9 -35 -5 -15 3 -31 2 -34 -3 -3 -6 -15 -8 -26 -5 -15 4 -29 -3 -48
-23 -31 -33 -90 -67 -102 -59 -5 3 -11 -4 -15 -14 -3 -12 -12 -18 -20 -15 -7
3 -18 -3 -24 -14 -12 -22 -97 -53 -127 -47 -10 3 -73 7 -139 9 -119 5 -245 26
-387 65 -40 11 -122 29 -183 41 -60 12 -150 32 -200 45 -49 13 -151 33 -225
45 -207 33 -313 64 -392 111 -37 23 -85 47 -106 55 -49 17 -122 17 -146 -1z
m2314 -649 c0 -15 -18 -31 -26 -23 -7 7 7 37 17 37 5 0 9 -6 9 -14z"/>
<path d="M1100 4920 c6 -11 13 -20 16 -20 2 0 0 9 -6 20 -6 11 -13 20 -16 20
-2 0 0 -9 6 -20z"/>
<path d="M1130 4870 c6 -11 13 -20 16 -20 2 0 0 9 -6 20 -6 11 -13 20 -16 20
-2 0 0 -9 6 -20z"/>
<path d="M1200 4683 c0 -19 11 -43 21 -43 13 0 11 14 -6 36 -8 10 -15 14 -15
7z"/>
<path d="M7072 4621 c4 -13 18 -16 19 -4 0 4 -5 9 -11 12 -7 2 -11 -2 -8 -8z"/>
<path d="M4375 4330 c3 -5 13 -10 21 -10 8 0 12 5 9 10 -3 6 -13 10 -21 10 -8
0 -12 -4 -9 -10z"/>
<path d="M3840 4080 c0 -5 5 -10 10 -10 6 0 10 5 10 10 0 6 -4 10 -10 10 -5 0
-10 -4 -10 -10z"/>
<path d="M1191 3274 c0 -11 3 -14 6 -6 3 7 2 16 -1 19 -3 4 -6 -2 -5 -13z"/>
<path d="M1208 2953 c7 -3 16 -2 19 1 4 3 -2 6 -13 5 -11 0 -14 -3 -6 -6z"/>
<path d="M1182 2645 c-11 -12 -10 -15 3 -15 8 0 15 7 15 15 0 18 -2 18 -18 0z"/>
<path d="M1178 2563 c7 -3 16 -2 19 1 4 3 -2 6 -13 5 -11 0 -14 -3 -6 -6z"/>
<path d="M1120 1566 c0 -9 5 -16 10 -16 6 0 10 4 10 9 0 6 -4 13 -10 16 -5 3
-10 -1 -10 -9z"/>
<path d="M1090 1516 c0 -2 7 -6 15 -10 8 -3 15 -1 15 4 0 6 -7 10 -15 10 -8 0
-15 -2 -15 -4z"/>
<path d="M960 1245 c0 -11 -11 -15 -38 -15 -41 0 -74 -32 -53 -53 8 -8 11 -6
11 7 0 16 6 18 51 14 28 -3 45 -2 37 3 -10 6 -9 11 6 22 11 8 16 19 12 25 -10
17 -26 15 -26 -3z"/>
</g>
</svg>
